<?xml version="1.0" standalone="no"?>
<!DOCTYPE svg PUBLIC "-//W3C//DTD SVG 1.1//EN" "http://www.w3.org/Graphics/SVG/1.1/DTD/svg11.dtd" >
<svg xmlns="http://www.w3.org/2000/svg" xmlns:xlink="http://www.w3.org/1999/xlink" version="1.1">
<metadata>
Created by FontForge 20170731 at Tue Feb  8 13:07:44 2011
 By Aleksey,,,
</metadata>
<defs>
<font id="ShastonHi320" horiz-adv-x="1600" >
  <font-face 
    font-family="Shaston Hi 320"
    font-weight="500"
    font-stretch="normal"
    units-per-em="1600"
    panose-1="0 0 0 0 0 0 0 0 0 0"
    ascent="1400"
    descent="-200"
    x-height="1000"
    cap-height="1400"
    bbox="-100 -200 3300 1400"
    underline-thickness="100"
    underline-position="-250"
    unicode-range="U+0020-FB07"
  />
<missing-glyph horiz-adv-x="0" 
 />
    <glyph glyph-name=".notdef" horiz-adv-x="0" 
 />
    <glyph glyph-name=".null" 
d="M1000 600h200v400h-200v200h-600v-200h-200v-200h200v200h400v-400h-400v-200h600v200zM0 1400h1400v-1600h-1400v1600zM800 200h-400v-200h400v200z" />
    <glyph glyph-name=".null" 
d="M1000 600h200v400h-200v200h-600v-200h-200v-200h200v200h400v-400h-400v-200h600v200zM0 1400h1400v-1600h-1400v1600zM800 200h-400v-200h400v200z" />
    <glyph glyph-name="nonmarkingreturn" horiz-adv-x="0" 
 />
    <glyph glyph-name="space" unicode=" " horiz-adv-x="800" 
 />
    <glyph glyph-name="exclam" unicode="!" horiz-adv-x="1200" 
d="M700 1400v-1000h-300v1000h300zM700 0h-300v200h300v-200z" />
    <glyph glyph-name="quotedbl" unicode="&#x22;" 
d="M1000 1400h300v-600h-300v600zM300 800v600h300v-600h-300z" />
    <glyph glyph-name="numbersign" unicode="#" 
d="M1000 200v200h-300v-200h-300v200h-200v200h200v400h-200v200h200v200h300v-200h300v200h300v-200h200v-200h-200v-400h200v-200h-200v-200h-300zM700 1000v-400h300v400h-300z" />
    <glyph glyph-name="dollar" unicode="$" 
d="M900 500v-300h200v300h-200zM1200 600h100v-100h100v-300h-100v-100h-100v-100h-300v-200h-200v200h-300v100h-100v100h-100v200h200v-100h100v-100h200v300h-300v100h-100v100h-100v300h100v100h100v100h300v200h200v-200h300v-100h100v-100h100v-200h-200v100h-100v100
h-200v-300h300v-100zM500 700h200v300h-200v-300z" />
    <glyph glyph-name="percent" unicode="%" 
d="M100 1200h100v100h100v100h400v-100h100v-100h100v-200h-100v-100h-100v-100h-400v100h-100v100h-100v200zM900 500v100h400v-100h100v-100h100v-200h-100v-100h-100v-100h-400v100h-100v100h-100v200h100v100h100zM800 800h100v-100h-100v100zM600 600h100v-100h-100
v100zM400 1300v-400h200v400h-200zM1300 1100h-100v100h100v-100zM500 300h-100v100h100v-100zM200 200h100v-100h-100v100zM1000 1000h100v-100h-100v100zM1400 1300v-100h-100v100h100zM900 800v100h100v-100h-100zM1200 1100v-100h-100v100h100zM600 500v-100h-100v100
h100zM300 300h100v-100h-100v100zM1200 500h-200v-400h200v400zM700 700h100v-100h-100v100z" />
    <glyph glyph-name="ampersand" unicode="&#x26;" horiz-adv-x="1800" 
d="M1600 100v-100h-300v100h-100v100h-100v-100h-100v-100h-600v100h-100v100h-100v300h100v100h100v100h100v200h-100v100h-100v200h100v100h200v100h300v-100h100v-100h100v-200h-100v-100h-100v-200h100v-100h100v-100h100v100h100v100h200v-200h-100v-100h-100v-100h100
v-100h100v-100h100zM900 500h-100v100h-200v-100h-100v-300h400v100h100v100h-100v100zM600 1200v-200h100v-100h100v100h100v200h-300z" />
    <glyph glyph-name="quotesingle" unicode="'" horiz-adv-x="1200" 
d="M700 1400v-600h-300v600h300z" />
    <glyph glyph-name="parenleft" unicode="(" horiz-adv-x="1400" 
d="M700 -200v100h-200v100h-100v100h-100v100h-100v800h100v100h100v100h100v100h200v100h500v-200h-400v-100h-200v-100h-100v-800h100v-100h200v-100h400v-200h-500z" />
    <glyph glyph-name="parenright" unicode=")" horiz-adv-x="1400" 
d="M1100 1100v-100h100v-800h-100v-100h-100v-100h-100v-100h-200v-100h-500v200h400v100h200v100h100v800h-100v100h-200v100h-400v200h500v-100h200v-100h100v-100h100z" />
    <glyph glyph-name="asterisk" unicode="*" horiz-adv-x="1400" 
d="M900 500v-100h100v-100h100v-100h-200v100h-100v100h-100v100h-100v-100h-100v-100h-100v-100h-200v100h100v100h100v100h100v100h-400v200h400v100h-100v100h-100v100h-100v100h200v-100h100v-100h100v-100h100v100h100v100h100v100h200v-100h-100v-100h-100v-100h-100
v-100h400v-200h-400v-100h100z" />
    <glyph glyph-name="plus" unicode="+" 
d="M1000 200h-300v400h-500v200h500v400h300v-400h500v-200h-500v-400z" />
    <glyph glyph-name="comma" unicode="," horiz-adv-x="1000" 
d="M700 0h-100v-200h-300v200h100v200h300v-200z" />
    <glyph glyph-name="glyph16" unicode="-" 
d="M200 800h1200v-200h-1200v200z" />
    <glyph glyph-name="period" unicode="." horiz-adv-x="800" 
d="M200 200h300v-200h-300v200z" />
    <glyph glyph-name="slash" unicode="/" 
d="M0 0v200h100v100h100v100h100v100h100v100h100v100h100v100h100v100h100v100h100v100h100v100h100v100h100v100h300v-200h-100v-100h-100v-100h-100v-100h-100v-100h-100v-100h-100v-100h-100v-100h-100v-100h-100v-100h-100v-100h-100v-100h-100v-100h-300z" />
    <glyph glyph-name="zero" unicode="0" 
d="M1100 0h-900v1100h100v100h100v100h100v100h900v-1100h-100v-100h-100v-100h-100v-100zM1000 200v100h100v900h-500v-100h-100v-900h500z" />
    <glyph glyph-name="one" unicode="1" 
d="M1000 200h400v-200h-1100v200h400v800h-400v200h400v100h100v100h200v-1200z" />
    <glyph glyph-name="two" unicode="2" 
d="M900 500v-100h-100v-100h-100v-100h700v-200h-1200v200h100v100h100v100h100v100h100v100h100v100h100v100h100v100h100v100h100v100h-100v100h-400v-100h-100v-200h-300v300h100v100h200v100h600v-100h200v-100h100v-300h-100v-100h-100v-100h-100v-100h-100v-100h-100z
" />
    <glyph glyph-name="three" unicode="3" 
d="M1100 0h-600v100h-200v100h-100v200h300v-100h100v-100h400v100h100v200h-100v100h-300v200h300v100h100v200h-100v100h-400v-100h-100v-100h-300v200h100v100h200v100h600v-100h200v-100h100v-300h-100v-100h-100v-200h100v-100h100v-300h-100v-100h-200v-100z" />
    <glyph glyph-name="four" unicode="4" 
d="M1200 400v-400h-300v400h-700v1000h300v-800h400v700h300v-700h200v-200h-200z" />
    <glyph glyph-name="five" unicode="5" 
d="M1000 200v100h100v300h-100v100h-700v700h1000v-200h-700v-300h500v-100h200v-100h100v-500h-100v-100h-200v-100h-600v100h-200v100h-100v200h300v-100h100v-100h400z" />
    <glyph glyph-name="six" unicode="6" 
d="M1000 200v100h100v300h-100v100h-400v-100h-100v-300h100v-100h400zM1100 0h-600v100h-200v100h-100v900h100v100h100v100h100v100h600v-200h-500v-100h-100v-300h100v100h500v-100h200v-100h100v-500h-100v-100h-200v-100z" />
    <glyph glyph-name="seven" unicode="7" 
d="M1100 1100v100h-900v200h1200v-300h-100v-100h-100v-100h-100v-100h-100v-200h-100v-300h-100v-300h-300v300h100v300h100v200h100v100h100v100h100v100h100z" />
    <glyph glyph-name="eight" unicode="8" 
d="M1100 0h-600v100h-200v100h-100v300h100v100h100v200h-100v100h-100v300h100v100h200v100h600v-100h200v-100h100v-300h-100v-100h-100v-200h100v-100h100v-300h-100v-100h-200v-100zM1000 200v100h100v200h-100v100h-400v-100h-100v-200h100v-100h400zM500 900h100v-100
h400v100h100v200h-100v100h-400v-100h-100v-200z" />
    <glyph glyph-name="nine" unicode="9" 
d="M1000 200v100h100v300h-100v-100h-500v100h-200v100h-100v500h100v100h200v100h600v-100h200v-100h100v-900h-100v-100h-100v-100h-100v-100h-700v200h600zM1100 1100h-100v100h-400v-100h-100v-300h100v-100h400v100h100v300z" />
    <glyph glyph-name="colon" unicode=":" horiz-adv-x="800" 
d="M200 800v200h300v-200h-300zM200 200h300v-200h-300v200z" />
    <glyph glyph-name="semicolon" unicode=";" horiz-adv-x="1000" 
d="M700 0h-100v-200h-300v200h100v200h300v-200zM700 1000v-200h-300v200h300z" />
    <glyph glyph-name="less" unicode="&#x3c;" horiz-adv-x="1400" 
d="M1100 0h-300v100h-100v100h-100v100h-100v100h-100v100h-100v100h-100v100h100v100h100v100h100v100h100v100h100v100h100v100h300v-200h-100v-100h-100v-100h-100v-100h-100v-100h-100v-100h100v-100h100v-100h100v-100h100v-100h100v-200z" />
    <glyph glyph-name="equal" unicode="=" 
d="M1400 800h-1200v200h1200v-200zM200 600h1200v-200h-1200v200z" />
    <glyph glyph-name="greater" unicode="&#x3e;" horiz-adv-x="1400" 
d="M600 500h100v100h100v100h-100v100h-100v100h-100v100h-100v100h-100v200h300v-100h100v-100h100v-100h100v-100h100v-100h100v-100h100v-100h-100v-100h-100v-100h-100v-100h-100v-100h-100v-100h-100v-100h-300v200h100v100h100v100h100v100z" />
    <glyph glyph-name="question" unicode="?" 
d="M1100 1100h-100v100h-400v-100h-100v-100h-300v200h100v100h200v100h600v-100h200v-100h100v-400h-100v-100h-200v-100h-200v-200h-300v200h100v100h200v100h100v100h100v200zM600 200h300v-200h-300v200z" />
    <glyph glyph-name="at" unicode="@" 
d="M700 400v100h100v400h-100v-100h-100v-400h100zM200 1000v-700h100v-100h100v-100h-200v100h-100v100h-100v700h100v100h100v100h200v-100h-100v-100h-100zM800 400v-100h-300v100h-100v400h100v100h100v100h400v-600h-200zM400 1300h600v-100h-600v100zM1300 1000h100
v-600h-100v-100h-300v100h200v600h-100v100h-100v100h200v-100h100v-100zM400 0v100h500v-100h-500z" />
    <glyph glyph-name="A" unicode="A" 
d="M1100 0v400h-600v-400h-300v1200h100v100h100v100h800v-100h100v-100h100v-1200h-300zM1100 1100h-100v100h-400v-100h-100v-500h600v500z" />
    <glyph glyph-name="B" unicode="B" 
d="M1000 200v100h100v200h-100v100h-500v-400h500zM1100 0h-900v1400h900v-100h200v-100h100v-300h-100v-100h-100v-200h100v-100h100v-300h-100v-100h-200v-100zM1100 1100h-100v100h-500v-400h500v100h100v200z" />
    <glyph glyph-name="C" unicode="C" 
d="M1000 200v100h100v100h300v-200h-100v-100h-200v-100h-600v100h-200v100h-100v1000h100v100h200v100h600v-100h200v-100h100v-200h-300v100h-100v100h-400v-100h-100v-800h100v-100h400z" />
    <glyph glyph-name="D" unicode="D" 
d="M1000 200v100h100v800h-100v100h-500v-1000h500zM1100 1400v-100h200v-100h100v-1000h-100v-100h-100v-100h-1000v1400h900z" />
    <glyph glyph-name="E" unicode="E" horiz-adv-x="1400" 
d="M1200 1200h-700v-400h500v-200h-500v-400h700v-200h-1000v1400h1000v-200z" />
    <glyph glyph-name="F" unicode="F" horiz-adv-x="1400" 
d="M1200 1200h-700v-400h500v-200h-500v-600h-300v1400h1000v-200z" />
    <glyph glyph-name="G" unicode="G" 
d="M1000 200v100h100v200h-300v200h600v-500h-100v-100h-200v-100h-600v100h-200v100h-100v1000h100v100h200v100h700v-100h100v-100h100v-200h-300v100h-100v100h-400v-100h-100v-800h100v-100h400z" />
    <glyph glyph-name="H" unicode="H" 
d="M1100 0v600h-600v-600h-300v1400h300v-600h600v600h300v-1400h-300z" />
    <glyph glyph-name="I" unicode="I" 
d="M1200 1200h-300v-1000h300v-200h-900v200h300v1000h-300v200h900v-200z" />
    <glyph glyph-name="J" unicode="J" 
d="M1000 200v100h100v1100h300v-1200h-100v-100h-100v-100h-800v100h-100v100h-100v300h300v-200h100v-100h400z" />
    <glyph glyph-name="K" unicode="K" horiz-adv-x="1800" 
d="M1600 100v-100h-400v100h-100v100h-100v100h-100v100h-100v100h-100v100h-200v-600h-300v1400h300v-600h200v100h100v100h100v100h100v100h100v100h100v100h400v-100h-100v-100h-100v-100h-100v-100h-100v-100h-100v-100h-100v-200h100v-100h100v-100h100v-100h100v-100
h100v-100h100z" />
    <glyph glyph-name="L" unicode="L" 
d="M1400 200v-200h-1200v1400h300v-1200h900z" />
    <glyph glyph-name="M" unicode="M" horiz-adv-x="1800" 
d="M1000 400h-200v100h-100v100h-100v100h-100v-700h-300v1400h100v-100h100v-100h100v-100h100v-100h100v-100h100v-100h200v100h100v100h100v100h100v100h100v100h100v100h100v-1400h-300v700h-100v-100h-100v-100h-100v-100z" />
    <glyph glyph-name="N" unicode="N" 
d="M1000 200v100h-100v100h-100v100h-100v200h-100v100h-100v-800h-300v1400h200v-100h100v-100h100v-100h100v-100h100v-100h100v-200h100v-100h100v800h300v-1400h-200v100h-100v100h-100z" />
    <glyph glyph-name="O" unicode="O" 
d="M1000 200v100h100v800h-100v100h-400v-100h-100v-800h100v-100h400zM1100 0h-600v100h-200v100h-100v1000h100v100h200v100h600v-100h200v-100h100v-1000h-100v-100h-200v-100z" />
    <glyph glyph-name="P" unicode="P" 
d="M500 700h500v100h100v300h-100v100h-500v-500zM1100 1400v-100h200v-100h100v-500h-100v-100h-200v-100h-600v-500h-300v1400h900z" />
    <glyph glyph-name="Q" unicode="Q" 
d="M1000 200v100h100v800h-100v100h-400v-100h-100v-800h100v-100h400zM500 100h-200v100h-100v1000h100v100h200v100h600v-100h200v-100h100v-1000h-100v-100h-100v-100h100v-100h100v-100h-300v100h-100v100h-500v100z" />
    <glyph glyph-name="R" unicode="R" 
d="M1000 200v100h-100v100h-100v100h-300v-500h-300v1400h900v-100h200v-100h100v-500h-100v-100h-200v-100h100v-100h100v-100h100v-100h100v-200h-300v100h-100v100h-100zM1100 1100h-100v100h-500v-500h500v100h100v300z" />
    <glyph glyph-name="S" unicode="S" 
d="M1000 200v100h100v200h-200v100h-400v100h-200v100h-100v400h100v100h200v100h600v-100h200v-100h100v-200h-300v100h-100v100h-400v-100h-100v-200h200v-100h400v-100h200v-100h100v-400h-100v-100h-200v-100h-600v100h-200v100h-100v200h300v-100h100v-100h400z" />
    <glyph glyph-name="T" unicode="T" 
d="M700 1200h-500v200h1300v-200h-500v-1200h-300v1200z" />
    <glyph glyph-name="U" unicode="U" 
d="M1100 0h-600v100h-200v100h-100v1200h300v-1100h100v-100h400v100h100v1100h300v-1200h-100v-100h-200v-100z" />
    <glyph glyph-name="V" unicode="V" horiz-adv-x="1800" 
d="M100 1200v200h300v-200h100v-200h100v-200h100v-200h100v-200h200v200h100v200h100v200h100v200h100v200h300v-200h-100v-200h-100v-200h-100v-200h-100v-200h-100v-100h-100v-200h-100v-100h-200v100h-100v200h-100v100h-100v200h-100v200h-100v200h-100v200h-100z" />
    <glyph glyph-name="W" unicode="W" horiz-adv-x="1800" 
d="M100 1400h300v-1100h100v-100h100v100h100v1100h300v-1100h100v-100h100v100h100v1100h300v-1200h-100v-100h-100v-100h-400v100h-100v100h-100v-100h-100v-100h-400v100h-100v100h-100v1200z" />
    <glyph glyph-name="X" unicode="X" 
d="M100 1200v200h300v-100h100v-100h100v-100h100v-100h100v-100h100v100h100v100h100v100h100v100h100v100h300v-200h-100v-100h-100v-100h-100v-100h-100v-100h-100v-200h100v-100h100v-100h100v-100h100v-100h100v-200h-300v100h-100v100h-100v100h-100v100h-100v100
h-100v-100h-100v-100h-100v-100h-100v-100h-100v-100h-300v200h100v100h100v100h100v100h100v100h100v200h-100v100h-100v100h-100v100h-100v100h-100z" />
    <glyph glyph-name="Y" unicode="Y" 
d="M100 1200v200h300v-200h100v-100h100v-200h100v-100h200v100h100v200h100v100h100v200h300v-200h-100v-200h-100v-100h-100v-200h-100v-100h-100v-600h-400v600h-100v100h-100v200h-100v100h-100v200h-100z" />
    <glyph glyph-name="Z" unicode="Z" 
d="M900 500h-100v-100h-100v-100h-100v-100h800v-200h-1200v300h100v100h100v100h100v100h100v100h100v200h100v100h100v100h100v100h-800v200h1200v-300h-100v-100h-100v-100h-100v-100h-100v-200h-100v-100z" />
    <glyph glyph-name="bracketleft" unicode="[" horiz-adv-x="1200" 
d="M1000 -200h-800v1600h800v-200h-500v-1200h500v-200z" />
    <glyph glyph-name="backslash" unicode="\" 
d="M100 1200v200h300v-100h100v-100h100v-100h100v-100h100v-100h100v-100h100v-100h100v-100h100v-100h100v-100h100v-100h100v-100h100v-200h-300v100h-100v100h-100v100h-100v100h-100v100h-100v100h-100v100h-100v100h-100v100h-100v100h-100v100h-100v100h-100z" />
    <glyph glyph-name="bracketright" unicode="]" horiz-adv-x="1200" 
d="M700 1200h-500v200h800v-1600h-800v200h500v1200z" />
    <glyph glyph-name="asciicircum" unicode="^" 
d="M1100 1100h100v-100h-400v100h-100v100h-100v-100h-100v-100h-200v100h100v100h100v100h100v100h300v-100h100v-100h100v-100z" />
    <glyph glyph-name="underscore" unicode="_" 
d="M0 -200v100h1600v-100h-1600z" />
    <glyph glyph-name="grave" unicode="`" horiz-adv-x="1000" 
d="M200 1100v300h300v-100h100v-100h100v-100h100v-200h-100v100h-200v100h-300z" />
    <glyph glyph-name="a" unicode="a" 
d="M1000 200v100h100v500h-500v-100h-100v-400h100v-100h400zM1100 0v100h-100v-100h-500v100h-200v100h-100v600h100v100h200v100h900v-1000h-300z" />
    <glyph glyph-name="b" unicode="b" 
d="M1000 200v100h100v400h-100v100h-400v-100h-100v-400h100v-100h400zM1100 0h-500v100h-100v-100h-300v1400h300v-500h100v100h500v-100h200v-100h100v-600h-100v-100h-200v-100z" />
    <glyph glyph-name="c" unicode="c" 
d="M1000 200v100h100v100h300v-200h-100v-100h-200v-100h-600v100h-200v100h-100v600h100v100h200v100h600v-100h200v-100h100v-200h-300v100h-100v100h-400v-100h-100v-400h100v-100h400z" />
    <glyph glyph-name="d" unicode="d" 
d="M1000 200v100h100v400h-100v100h-400v-100h-100v-400h100v-100h400zM1100 0v100h-100v-100h-500v100h-200v100h-100v600h100v100h200v100h500v-100h100v500h300v-1400h-300z" />
    <glyph glyph-name="e" unicode="e" 
d="M500 100h-200v100h-100v600h100v100h200v100h600v-100h200v-100h100v-400h-900v-100h100v-100h500v100h300v-100h-100v-100h-100v-100h-700v100zM1000 800h-400v-100h-100v-100h600v100h-100v100z" />
    <glyph glyph-name="f" unicode="f" horiz-adv-x="1400" 
d="M200 1000h300v200h100v100h100v100h500v-200h-400v-200h400v-200h-400v-800h-300v800h-300v200z" />
    <glyph glyph-name="g" unicode="g" 
d="M1000 200v-100h-500v100h-200v100h-100v500h100v100h200v100h500v-100h100v100h300v-900h-100v-100h-100v-100h-100v-100h-700v100h-100v200h100v-100h600v100h100v100h-100zM600 300h400v100h100v300h-100v100h-400v-100h-100v-300h100v-100z" />
    <glyph glyph-name="h" unicode="h" 
d="M1100 0v700h-100v100h-400v-100h-100v-700h-300v1400h300v-500h100v100h500v-100h200v-100h100v-800h-300z" />
    <glyph glyph-name="i" unicode="i" horiz-adv-x="1200" 
d="M1100 0h-900v200h300v600h-300v200h600v-800h300v-200zM500 1200v200h300v-200h-300z" />
    <glyph glyph-name="j" unicode="j" horiz-adv-x="1400" 
d="M500 100h100v-100h200v100h100v700h-200v200h500v-1000h-100v-100h-200v-100h-400v100h-200v100h-100v200h300v-100zM1200 1400v-200h-300v200h300z" />
    <glyph glyph-name="k" unicode="k" 
d="M700 400h-200v-400h-300v1400h300v-800h200v100h100v100h100v100h100v100h400v-100h-100v-100h-100v-100h-100v-100h-100v-200h100v-100h100v-100h100v-100h100v-100h-400v100h-100v100h-100v100h-100v100z" />
    <glyph glyph-name="l" unicode="l" 
d="M1000 200h200v-200h-700v200h200v1000h-200v200h500v-1200z" />
    <glyph glyph-name="m" unicode="m" horiz-adv-x="1800" 
d="M1400 900h100v-100h100v-800h-300v800h-200v-100h-100v-700h-300v800h-200v-100h-100v-700h-300v1000h200v-100h100v100h500v-100h100v100h400v-100z" />
    <glyph glyph-name="n" unicode="n" 
d="M1100 0v700h-100v100h-400v-100h-100v-700h-300v1000h300v-100h100v100h500v-100h200v-100h100v-800h-300z" />
    <glyph glyph-name="o" unicode="o" 
d="M1000 200v100h100v400h-100v100h-400v-100h-100v-400h100v-100h400zM1100 0h-600v100h-200v100h-100v600h100v100h200v100h600v-100h200v-100h100v-600h-100v-100h-200v-100z" />
    <glyph glyph-name="p" unicode="p" 
d="M1000 200v100h100v400h-100v100h-400v-100h-100v-400h100v-100h400zM1100 0h-500v100h-100v-300h-300v1200h300v-100h100v100h500v-100h200v-100h100v-600h-100v-100h-200v-100z" />
    <glyph glyph-name="q" unicode="q" 
d="M1000 200v100h100v400h-100v100h-400v-100h-100v-400h100v-100h400zM500 100h-200v100h-100v600h100v100h200v100h500v-100h100v100h300v-1200h-300v300h-100v-100h-500v100z" />
    <glyph glyph-name="r" unicode="r" horiz-adv-x="1400" 
d="M700 400h-100v-400h-300v1000h300v-200h100v100h200v100h400v-200h-400v-100h-100v-100h-100v-200z" />
    <glyph glyph-name="s" unicode="s" 
d="M1000 200v200h-500v100h-100v100h-100v200h100v100h100v100h600v-100h100v-200h-200v100h-400v-200h500v-100h100v-100h100v-200h-100v-100h-100v-100h-700v100h-100v200h200v-100h500z" />
    <glyph glyph-name="t" unicode="t" 
d="M800 800v-500h100v-100h300v-200h-500v100h-100v100h-100v600h-300v200h300v200h300v-200h400v-200h-400z" />
    <glyph glyph-name="u" unicode="u" 
d="M1100 0v100h-100v-100h-500v100h-200v100h-100v800h300v-700h100v-100h400v100h100v700h300v-1000h-300z" />
    <glyph glyph-name="v" unicode="v" horiz-adv-x="1800" 
d="M1000 200v200h100v200h100v200h100v200h300v-200h-100v-200h-100v-200h-100v-100h-100v-200h-100v-100h-400v100h-100v200h-100v100h-100v200h-100v200h-100v200h300v-200h100v-200h100v-200h100v-200h200z" />
    <glyph glyph-name="w" unicode="w" horiz-adv-x="1800" 
d="M600 300h100v600h300v-600h100v-100h200v800h300v-800h-100v-100h-100v-100h-400v100h-100v100h-100v-100h-100v-100h-400v100h-100v100h-100v800h300v-800h200v100z" />
    <glyph glyph-name="x" unicode="x" 
d="M1100 0v100h-100v100h-100v100h-200v-100h-100v-100h-100v-100h-300v200h100v100h100v100h100v200h-100v100h-100v100h-100v200h300v-100h100v-100h100v-100h200v100h100v100h100v100h300v-200h-100v-100h-100v-100h-100v-200h100v-100h100v-100h100v-200h-300z" />
    <glyph glyph-name="y" unicode="y" 
d="M1000 200h-500v100h-200v100h-100v600h300v-500h100v-100h400v100h100v500h300v-900h-100v-100h-100v-100h-100v-100h-700v100h-100v200h100v-100h600v100h100v200h-100v-100z" />
    <glyph glyph-name="z" unicode="z" 
d="M600 500h100v100h100v100h100v100h-600v200h1100v-200h-100v-100h-100v-100h-100v-100h-100v-100h-100v-100h-100v-100h600v-200h-1100v200h100v100h100v100h100v100z" />
    <glyph glyph-name="braceleft" unicode="{" 
d="M600 500h-100v100h-300v100h300v100h100v400h100v100h100v100h600v-100h-400v-100h-100v-300h-100v-100h-100v-100h-100v-100h100v-100h100v-100h100v-400h100v-100h400v-100h-600v100h-100v100h-100v500z" />
    <glyph glyph-name="bar" unicode="|" horiz-adv-x="1200" 
d="M700 1400v-1600h-300v1600h300z" />
    <glyph glyph-name="braceright" unicode="}" 
d="M900 500v100h100v100h-100v100h-100v100h-100v300h-100v100h-400v100h600v-100h100v-100h100v-400h100v-100h300v-100h-300v-100h-100v-500h-100v-100h-100v-100h-600v100h400v100h100v400h100v100h100z" />
    <glyph glyph-name="asciitilde" unicode="~" horiz-adv-x="1800" 
d="M100 1200h100v-100h-100v100zM0 1100h100v-100h-100v100zM200 1300h100v100h500v-100h200v-100h400v-100h-100v-100h-600v100h-200v100h-300v100zM1400 1200v100h100v-100h-100zM1500 1300v100h100v-100h-100z" />
    <glyph glyph-name="nonbreakingspace" unicode="&#xa0;" horiz-adv-x="800" 
 />
    <glyph glyph-name="exclamdown" unicode="&#xa1;" horiz-adv-x="1200" 
d="M700 1400v-200h-300v200h300zM700 0h-300v1000h300v-1000z" />
    <glyph glyph-name="cent" unicode="&#xa2;" horiz-adv-x="1400" 
d="M600 500v-100h400v100h300v-100h-100v-100h-100v-100h-200v-400h-200v400h-200v100h-200v100h-100v400h100v100h200v100h200v400h200v-400h200v-100h100v-100h100v-100h-300v100h-400v-100h-100v-200h100z" />
    <glyph glyph-name="sterling" unicode="&#xa3;" 
d="M0 0v200h200v400h-200v200h200v400h100v100h200v100h600v-100h100v-100h100v-100h-200v100h-500v-100h-100v-300h500v-200h-500v-400h600v100h100v100h200v-200h-100v-100h-100v-100h-1200z" />
    <glyph glyph-name="currency" unicode="&#xa4;" 
d="M200 1000h-100v100h200v-100h100v-100h100v100h600v-100h100v100h100v100h200v-100h-100v-100h-100v-100h100v-400h-100v-100h100v-100h100v-100h-200v100h-100v100h-100v-100h-600v100h-100v-100h-100v-100h-200v100h100v100h100v100h-100v400h100v100h-100v100z
M1000 700v100h-400v-100h-100v-200h100v-100h400v100h100v200h-100z" />
    <glyph glyph-name="yen" unicode="&#xa5;" 
d="M700 400v200h-400v100h400v100h-100v100h-100v100h-100v100h-100v100h-100v200h200v-100h100v-100h100v-100h100v-100h100v-100h100v100h100v100h100v100h100v100h100v100h200v-200h-100v-100h-100v-100h-100v-100h-100v-100h-100v-100h400v-100h-400v-200h400v-100h-400
v-300h-300v300h-400v100h400z" />
    <glyph glyph-name="brokenbar" unicode="&#xa6;" horiz-adv-x="1200" 
d="M700 1400v-700h-300v700h300zM400 500h300v-700h-300v700z" />
    <glyph glyph-name="section" unicode="&#xa7;" 
d="M1100 0v100h-200v100h-300v100h-200v100h-100v100h-100v300h100v100h200v100h-200v100h-100v100h100v100h100v100h500v-100h100v-100h-500v-100h200v-100h300v-100h200v-100h100v-100h100v-200h-100v-100h-100v-100h-100v-100h200v-100h100v-100h-100v-100h-100v-100
h-500v100h-100v100h500zM1000 700v100h-400v-100h-100v-200h100v-100h400v100h100v200h-100z" />
    <glyph glyph-name="dieresis" unicode="&#xa8;" horiz-adv-x="1200" 
d="M1000 1400v-200h-200v200h200zM200 1200v200h200v-200h-200z" />
    <glyph glyph-name="copyright" unicode="&#xa9;" horiz-adv-x="1400" 
d="M900 500h-400v100h-200v100h-100v400h100v100h200v100h400v-100h200v-100h100v-100h-300v100h-300v-100h-100v-200h100v-100h300v100h300v-100h-100v-100h-200v-100z" />
    <glyph glyph-name="ordfeminine" unicode="&#xaa;" 
d="M1000 400h-500v100h-200v100h-100v600h100v100h200v100h900v-1000h-300v100h-100v-100zM200 0v200h1200v-200h-1200zM600 600h400v100h100v500h-500v-100h-100v-400h100v-100z" />
    <glyph glyph-name="guillemotleft" unicode="&#xab;" 
d="M1000 200v100h-100v100h-100v100h100v100h100v100h100v100h100v100h300v-100h-100v-100h-100v-100h-100v-100h-100v-100h100v-100h100v-100h100v-100h100v-100h-300v100h-100v100h-100zM600 300v-100h100v-100h100v-100h-300v100h-100v100h-100v100h-100v100h-100v100
h100v100h100v100h100v100h100v100h300v-100h-100v-100h-100v-100h-100v-100h-100v-100h100v-100h100z" />
    <glyph glyph-name="logicalnot" unicode="&#xac;" 
d="M1100 200v400h-900v200h1200v-600h-300z" />
    <glyph glyph-name="hyphen" unicode="&#xad;" 
d="M200 800h1200v-200h-1200v200z" />
    <glyph glyph-name="registered" unicode="&#xae;" 
d="M1100 1300h100v-100h100v-200h-100v-100h-100v-100h100v-100h100v-100h-300v100h-100v100h-400v-200h-300v800h900v-100zM500 1200v-200h500v200h-500z" />
    <glyph glyph-name="macron" unicode="&#xaf;" horiz-adv-x="1200" 
d="M1000 1400v-200h-800v200h800z" />
    <glyph glyph-name="degree" unicode="&#xb0;" horiz-adv-x="1400" 
d="M500 700h-200v100h-100v300h100v100h200v100h400v-100h200v-100h100v-300h-100v-100h-200v-100h-400v100zM500 1100v-300h400v300h-400z" />
    <glyph glyph-name="plusminus" unicode="&#xb1;" 
d="M600 300v300h-400v200h400v300h300v-300h400v-200h-400v-300h-300zM200 0v200h1100v-200h-1100z" />
    <glyph glyph-name="twosuperior" unicode="&#xb2;" horiz-adv-x="1000" 
d="M100 1200v100h100v100h600v-100h100v-200h-200v-100h-200v-100h400v-100h-800v100h100v100h200v100h200v100h100v100h-400v-100h-200z" />
    <glyph glyph-name="threesuperior" unicode="&#xb3;" horiz-adv-x="1000" 
d="M200 1000h200v-100h300v200h-200v100h200v100h-300v-100h-200v100h100v100h500v-100h100v-100h-100v-100h100v-200h-100v-100h-500v100h-100v100z" />
    <glyph glyph-name="acute" unicode="&#xb4;" horiz-adv-x="1400" 
d="M500 1100v100h100v100h100v100h200v-200h-200v-100h-200zM400 1100h100v-100h-100v100z" />
    <glyph glyph-name="mu" unicode="&#xb5;" 
d="M500 100v-100h-100v-100h-100v-100h-100v1200h300v-700h100v-100h400v100h100v700h300v-1000h-200v100h-200v-100h-400v100h-100z" />
    <glyph glyph-name="paragraph" unicode="&#xb6;" horiz-adv-x="1400" 
d="M1000 -200v600h-200v-600h-200v600h-200v100h-100v100h-100v600h100v100h100v100h800v-1600h-200zM400 700h100v-100h100v600h-100v-100h-100v-400zM1000 600v600h-200v-600h200z" />
    <glyph glyph-name="periodcentered" unicode="&#xb7;" horiz-adv-x="800" 
d="M200 800h300v-200h-300v200z" />
    <glyph glyph-name="cedilla" unicode="&#xb8;" horiz-adv-x="800" 
d="M500 0v-200h-200v100h100v100h100z" />
    <glyph glyph-name="onesuperior" unicode="&#xb9;" horiz-adv-x="1000" 
d="M100 1200h200v100h100v100h200v-500h300v-100h-800v100h300v200h-300v100z" />
    <glyph glyph-name="ordmasculine" unicode="&#xba;" 
d="M1100 1100h-100v100h-400v-100h-100v-400h100v-100h400v100h100v400zM1100 1300h200v-100h100v-600h-100v-100h-200v-100h-600v100h-200v100h-100v600h100v100h200v100h600v-100zM1300 0h-1000v200h1000v-200z" />
    <glyph glyph-name="guillemotright" unicode="&#xbb;" 
d="M1100 0h-300v100h100v100h100v100h100v100h100v100h-100v100h-100v100h-100v100h-100v100h300v-100h100v-100h100v-100h100v-100h100v-100h-100v-100h-100v-100h-100v-100h-100v-100zM600 300v-100h-100v-100h-100v-100h-300v100h100v100h100v100h100v100h100v100h-100
v100h-100v100h-100v100h-100v100h300v-100h100v-100h100v-100h100v-100h100v-100h-100v-100h-100z" />
    <glyph glyph-name="onequarter" unicode="&#xbc;" 
d="M1100 0v200h-400v300h-100v100h100v100h100v-100h100v-300h200v200h200v-200h200v-100h-200v-200h-200zM100 1200h200v100h100v100h200v-500h400v-100h-100v-100h-100v100h-700v100h300v200h-300v100zM1300 1100h-100v100h100v-100zM500 300h-100v100h100v-100zM300 100
h-100v100h100v-100zM1000 1000h100v-100h-100v100zM1400 1300v-100h-100v100h100zM1200 1100v-100h-100v100h100zM600 500v-100h-100v100h100zM300 300h100v-100h-100v100z" />
    <glyph glyph-name="onehalf" unicode="&#xbd;" 
d="M100 1200h200v100h100v100h200v-500h400v-100h-100v-100h-100v100h-700v100h300v200h-300v100zM900 500v-100h-200v100h100v100h600v-100h100v-200h-200v-100h-200v-100h400v-100h-800v100h100v100h200v100h200v100h100v100h-400zM600 600h100v-100h-100v100zM1300 1100
h-100v100h100v-100zM500 300h-100v100h100v-100zM200 200h100v-100h-100v100zM1000 1000h100v-100h-100v100zM1400 1300v-100h-100v100h100zM1200 1100v-100h-100v100h100zM600 500v-100h-100v100h100zM300 300h100v-100h-100v100zM700 700h100v-100h-100v100z" />
    <glyph glyph-name="threequarters" unicode="&#xbe;" 
d="M1100 0v200h-400v300h-100v100h100v100h100v-100h100v-300h200v200h200v-200h200v-100h-200v-200h-200zM800 800h-500v100h-100v100h200v-100h300v200h-200v100h200v100h-300v-100h-200v100h100v100h500v-100h100v-100h-100v-100h100v-200h-100v-100zM1300 1100h-100v100
h100v-100zM500 300h-100v100h100v-100zM300 100h-100v100h100v-100zM1000 1000h100v-100h-100v100zM1400 1300v-100h-100v100h100zM900 800v-100h-100v100h100zM1200 1100v-100h-100v100h100zM1000 900v-100h-100v100h100zM600 500v-100h-100v100h100zM300 300h100v-100
h-100v100z" />
    <glyph glyph-name="questiondown" unicode="&#xbf;" 
d="M500 100h-200v100h-100v400h100v100h200v100h300v200h300v-300h-100v-100h-400v-100h-100v-200h100v-100h500v100h100v100h200v-200h-100v-100h-100v-100h-700v100zM1100 1200h-300v200h300v-200z" />
    <glyph glyph-name="Agrave" unicode="&#xc0;" 
d="M1100 0v300h-600v-300h-300v800h100v100h200v100h600v-100h200v-100h100v-800h-300zM1000 800h-400v-100h-100v-200h600v200h-100v100zM500 1200v200h200v-100h100v-100h-300zM800 1100v100h100v-100h-100z" />
    <glyph glyph-name="Aacute" unicode="&#xc1;" 
d="M1100 0v300h-600v-300h-300v800h100v100h200v100h600v-100h200v-100h100v-800h-300zM1000 800h-400v-100h-100v-200h600v200h-100v100zM700 1100v100h100v-100h-100zM800 1300h100v100h200v-200h-300v100z" />
    <glyph glyph-name="Acircumflex" unicode="&#xc2;" 
d="M1100 0v300h-600v-300h-300v800h100v100h200v100h600v-100h200v-100h100v-800h-300zM1100 1300v-100h100v-100h-200v100h-100v100h-200v-100h-100v-100h-200v100h100v100h100v100h400v-100h100zM1000 800h-400v-100h-100v-200h600v200h-100v100z" />
    <glyph glyph-name="Atilde" unicode="&#xc3;" 
d="M1100 0v300h-600v-300h-300v800h100v100h200v100h600v-100h200v-100h100v-800h-300zM200 1100v100h100v-100h-100zM1000 800h-400v-100h-100v-200h600v200h-100v100zM1400 1400v-100h-100v100h100zM400 1300v100h400v-100h200v-100h200v-100h-400v100h-200v100h-200z
M1300 1300v-100h-100v100h100zM300 1200v100h100v-100h-100z" />
    <glyph glyph-name="Adieresis" unicode="&#xc4;" 
d="M1100 0v300h-600v-300h-300v800h100v100h200v100h600v-100h200v-100h100v-800h-300zM1000 800h-400v-100h-100v-200h600v200h-100v100zM1200 1200h-200v200h200v-200zM600 1400v-200h-200v200h200z" />
    <glyph glyph-name="Aring" unicode="&#xc5;" 
d="M1100 0v200h-600v-200h-300v800h100v100h100v100h100v100h600v-100h100v-100h100v-100h100v-800h-300zM1100 1100v200h200v-200h-200zM1100 1300h-600v100h600v-100zM1000 800v100h-400v-100h-100v-400h600v400h-100zM500 1100h-200v200h200v-200z" />
    <glyph glyph-name="AE" unicode="&#xc6;" horiz-adv-x="2000" 
d="M1100 1300v100h700v-200h-500v-400h500v-200h-500v-400h500v-200h-800v500h-500v-500h-300v1200h100v100h200v100h400v-100h200zM1000 1100h-100v100h-300v-100h-100v-400h500v400z" />
    <glyph glyph-name="Ccedilla" unicode="&#xc7;" 
d="M1000 200v100h100v100h300v-200h-100v-100h-200v-100h-200v-200h-200v100h100v100h-300v100h-200v100h-100v1000h100v100h200v100h600v-100h200v-100h100v-200h-300v100h-100v100h-400v-100h-100v-800h100v-100h400z" />
    <glyph glyph-name="Egrave" unicode="&#xc8;" horiz-adv-x="1400" 
d="M1000 600v-200h-500v-200h700v-200h-1000v1000h1000v-200h-700v-200h500zM400 1400h200v-100h100v-100h-300v200zM700 1200h100v-100h-100v100z" />
    <glyph glyph-name="Eacute" unicode="&#xc9;" horiz-adv-x="1400" 
d="M1000 600v-200h-500v-200h700v-200h-1000v1000h1000v-200h-700v-200h500zM700 1200v100h100v100h200v-200h-300zM700 1100h-100v100h100v-100z" />
    <glyph glyph-name="Ecircumflex" unicode="&#xca;" horiz-adv-x="1400" 
d="M1100 1100h-200v100h-100v100h-200v-100h-100v-100h-200v100h100v100h100v100h400v-100h100v-100h100v-100zM1000 400h-500v-200h700v-200h-1000v1000h1000v-200h-700v-200h500v-200z" />
    <glyph glyph-name="Edieresis" unicode="&#xcb;" horiz-adv-x="1400" 
d="M1000 600v-200h-500v-200h700v-200h-1000v1000h1000v-200h-700v-200h500zM400 1400h200v-200h-200v200zM1000 1200h-200v200h200v-200z" />
    <glyph glyph-name="Igrave" unicode="&#xcc;" horiz-adv-x="1200" 
d="M1000 200v-200h-700v200h200v500h-200v200h700v-200h-200v-500h200zM700 1300v-100h100v-100h-200v100h-200v200h200v-100h100zM800 1000v100h100v-100h-100z" />
    <glyph glyph-name="Iacute" unicode="&#xcd;" horiz-adv-x="1200" 
d="M1000 200v-200h-700v200h200v500h-200v200h700v-200h-200v-500h200zM500 1200h100v100h100v100h200v-200h-200v-100h-200v100zM400 1100h100v-100h-100v100z" />
    <glyph glyph-name="Icircumflex" unicode="&#xce;" horiz-adv-x="1200" 
d="M1000 200v-200h-700v200h200v600h-200v200h700v-200h-200v-600h200zM400 1300h100v100h300v-100h100v-100h100v-100h-200v100h-100v100h-100v-100h-100v-100h-200v100h100v100z" />
    <glyph glyph-name="Idieresis" unicode="&#xcf;" horiz-adv-x="1200" 
d="M1000 200v-200h-700v200h200v600h-200v200h700v-200h-200v-600h200zM200 1400h200v-200h-200v200zM1000 1400v-200h-200v200h200z" />
    <glyph glyph-name="Eth" unicode="&#xd0;" 
d="M1000 200v100h100v800h-100v100h-500v-400h200v-200h-200v-400h500zM1100 1300h200v-100h100v-1000h-100v-100h-100v-100h-1000v600h-200v200h200v600h900v-100z" />
    <glyph glyph-name="Ntilde" unicode="&#xd1;" horiz-adv-x="1800" 
d="M1000 200v100h-200v100h-200v100h-200v-500h-200v900h200v-100h200v-100h200v-100h200v-100h200v-100h200v500h200v-900h-200v100h-200v100h-200zM200 1100v100h100v-100h-100zM400 1300v100h600v-100h200v-100h200v-100h-600v100h-200v100h-200zM1500 1300v100h100v-100
h-100zM1400 1300h100v-100h-100v100zM300 1300h100v-100h-100v100z" />
    <glyph glyph-name="Ograve" unicode="&#xd2;" 
d="M1000 200v100h100v400h-100v100h-400v-100h-100v-400h100v-100h400zM1100 0h-600v100h-200v100h-100v600h100v100h200v100h600v-100h200v-100h100v-600h-100v-100h-200v-100zM500 1400h200v-100h100v-100h-300v200zM800 1100v100h100v-100h-100z" />
    <glyph glyph-name="Oacute" unicode="&#xd3;" 
d="M1000 200v100h100v400h-100v100h-400v-100h-100v-400h100v-100h400zM1100 0h-600v100h-200v100h-100v600h100v100h200v100h600v-100h200v-100h100v-600h-100v-100h-200v-100zM700 1100v100h100v-100h-100zM800 1300h100v100h200v-200h-300v100z" />
    <glyph glyph-name="Ocircumflex" unicode="&#xd4;" 
d="M1100 0h-600v100h-200v100h-100v600h100v100h200v100h600v-100h200v-100h100v-600h-100v-100h-200v-100zM1000 200v100h100v400h-100v100h-400v-100h-100v-400h100v-100h400zM1100 1300v-100h100v-100h-200v100h-100v100h-200v-100h-100v-100h-200v100h100v100h100v100
h400v-100h100z" />
    <glyph glyph-name="Otilde" unicode="&#xd5;" horiz-adv-x="1800" 
d="M600 300v-100h600v100h100v400h-100v100h-600v-100h-100v-400h100zM1100 1300v-100h200v-100h-400v100h-200v100h-200v100h400v-100h200zM1400 1400h100v-100h-100v100zM400 1300h100v-100h-100v100zM1300 1000v-100h200v-100h100v-600h-100v-100h-200v-100h-800v100
h-200v100h-100v600h100v100h200v100h800zM1400 1300v-100h-100v100h100zM400 1100h-100v100h100v-100z" />
    <glyph glyph-name="Odieresis" unicode="&#xd6;" 
d="M1000 200v100h100v400h-100v100h-400v-100h-100v-400h100v-100h400zM1100 0h-600v100h-200v100h-100v600h100v100h200v100h600v-100h200v-100h100v-600h-100v-100h-200v-100zM1200 1400v-200h-200v200h200zM600 1400v-200h-200v200h200z" />
    <glyph glyph-name="multiply" unicode="&#xd7;" 
d="M900 500h-200v-100h-100v-100h-100v-100h-300v200h100v100h100v100h100v200h-100v100h-100v100h-100v200h300v-100h100v-100h100v-100h200v100h100v100h100v100h300v-200h-100v-100h-100v-100h-100v-200h100v-100h100v-100h100v-200h-300v100h-100v100h-100v100z" />
    <glyph glyph-name="Oslash" unicode="&#xd8;" horiz-adv-x="1800" 
d="M900 500h-100v-100h-100v-100h-100v-100h600v100h100v600h-100v-100h-100v-100h-100v-100h-100v-100zM1500 1300v-100h100v-1000h-100v-100h-200v-100h-800v100h-200v100h-100v1000h100v100h200v100h800v-100h200zM1300 1100v100h-700v-100h-100v-700h100v100h100v100
h100v100h100v100h100v100h100v100h100v100h100z" />
    <glyph glyph-name="Ugrave" unicode="&#xd9;" 
d="M1000 200v100h100v700h300v-800h-100v-100h-200v-100h-600v100h-200v100h-100v800h300v-700h100v-100h400zM500 1200v200h200v-100h100v-100h-300zM800 1100v100h100v-100h-100z" />
    <glyph glyph-name="Uacute" unicode="&#xda;" 
d="M1000 200v100h100v700h300v-800h-100v-100h-200v-100h-600v100h-200v100h-100v800h300v-700h100v-100h400zM700 1100v100h100v-100h-100zM800 1300h100v100h200v-200h-300v100z" />
    <glyph glyph-name="Ucircumflex" unicode="&#xdb;" 
d="M1000 200v100h100v700h300v-800h-100v-100h-200v-100h-600v100h-200v100h-100v800h300v-700h100v-100h400zM1100 1300v-100h100v-100h-200v100h-100v100h-200v-100h-100v-100h-200v100h100v100h100v100h400v-100h100z" />
    <glyph glyph-name="Udieresis" unicode="&#xdc;" 
d="M1000 200v100h100v700h300v-800h-100v-100h-200v-100h-600v100h-200v100h-100v800h300v-700h100v-100h400zM1200 1200h-200v200h200v-200zM600 1200h-200v200h200v-200z" />
    <glyph glyph-name="Yacute" unicode="&#xdd;" 
d="M1000 400v-400h-400v400h-100v100h-100v200h-100v100h-100v200h300v-100h100v-200h100v-100h200v100h100v200h100v100h300v-200h-100v-100h-100v-200h-100v-100h-100zM700 1100v100h100v-100h-100zM800 1300h100v100h200v-200h-300v100z" />
    <glyph glyph-name="Thorn" unicode="&#xde;" 
d="M1100 1100h200v-100h100v-600h-100v-100h-200v-100h-600v-200h-300v1400h300v-200h600v-100zM1000 400v100h100v400h-100v100h-500v-600h500z" />
    <glyph glyph-name="germandbls" unicode="&#xdf;" 
d="M1000 200v100h100v200h-100v100h-100v100h-200v100h100v100h100v100h100v100h-100v100h-300v-100h-100v-700h100v-100h100v-100h300zM1200 600h100v-100h100v-300h-100v-100h-100v-100h-500v100h-100v100h-100v-200h-300v1100h100v100h100v100h100v100h400v-100h200v-100
h100v-300h-100v-100h-100v-100h200v-100z" />
    <glyph glyph-name="agrave" unicode="&#xe0;" 
d="M1000 200v100h100v400h-500v-100h-100v-300h100v-100h400zM1100 0v100h-100v-100h-500v100h-200v100h-100v500h100v100h200v100h900v-900h-300zM500 1200v200h200v-100h100v-100h100v-100h-200v100h-200zM1000 1100v-100h-100v100h100z" />
    <glyph glyph-name="aacute" unicode="&#xe1;" 
d="M1000 200v100h100v400h-500v-100h-100v-300h100v-100h400zM1100 0v100h-100v-100h-500v100h-200v100h-100v500h100v100h200v100h900v-900h-300zM1100 1100h-200v100h100v100h100v100h200v-200h-200v-100zM800 1000v100h100v-100h-100z" />
    <glyph glyph-name="acircumflex" unicode="&#xe2;" 
d="M1000 200v100h100v500h-500v-100h-100v-400h100v-100h400zM500 100h-200v100h-100v600h100v100h200v100h900v-1000h-300v100h-100v-100h-500v100zM1100 1100v100h-100v100h-200v-100h-100v-100h-200v100h100v100h100v100h400v-100h100v-100h100v-100h-200z" />
    <glyph glyph-name="atilde" unicode="&#xe3;" 
d="M1100 0v100h-100v-100h-500v100h-200v100h-100v600h100v100h200v100h900v-1000h-300zM1000 200v100h100v500h-500v-100h-100v-400h100v-100h400zM1100 1300v-100h200v-100h-400v100h-200v100h-200v100h400v-100h200zM1400 1400h100v-100h-100v100zM400 1300h100v-100
h-100v100zM1400 1300v-100h-100v100h100zM400 1100h-100v100h100v-100z" />
    <glyph glyph-name="adieresis" unicode="&#xe4;" 
d="M1000 200v100h100v500h-500v-100h-100v-400h100v-100h400zM1100 0v100h-100v-100h-500v100h-200v100h-100v600h100v100h200v100h900v-1000h-300zM500 1200v200h200v-200h-200zM1100 1200v200h200v-200h-200z" />
    <glyph glyph-name="aring" unicode="&#xe5;" 
d="M1000 200v100h100v300h-500v-100h-100v-200h100v-100h400zM500 100h-200v100h-100v400h100v100h200v100h900v-800h-300v100h-100v-100h-500v100zM1100 1300h100v-100h100v-100h-100v-100h-100v300zM1100 1000v-100h-400v100h400zM500 1200h100v100h100v-300h-100v100
h-100v100zM700 1300v100h400v-100h-400z" />
    <glyph glyph-name="ae" unicode="&#xe6;" horiz-adv-x="2400" 
d="M600 300v-100h300v100h100v500h-400v-100h-100v-400h100zM1900 800h-400v-100h-100v-100h600v100h-100v100zM2000 100v-100h-600v100h-100v100h-100v-200h-200v100h-100v-100h-500v100h-100v100h-100v600h100v100h200v100h700v-200h100v100h100v100h500v-100h200v-100
h100v-400h-800v-100h100v-100h500v100h200v-100h-100v-100h-100z" />
    <glyph glyph-name="ccedilla" unicode="&#xe7;" 
d="M1000 200v100h100v100h300v-200h-100v-100h-200v-100h-200v-200h-200v100h100v100h-300v100h-200v100h-100v600h100v100h200v100h600v-100h200v-100h100v-200h-300v100h-100v100h-400v-100h-100v-400h100v-100h400z" />
    <glyph glyph-name="egrave" unicode="&#xe8;" 
d="M500 100h-200v100h-100v600h100v100h200v100h600v-100h200v-100h100v-400h-900v-100h100v-100h500v100h300v-100h-100v-100h-100v-100h-700v100zM1000 800h-400v-100h-100v-100h600v100h-100v100zM500 1400h200v-100h100v-100h-300v200zM800 1100v100h100v-100h-100z" />
    <glyph glyph-name="eacute" unicode="&#xe9;" 
d="M600 300v-100h500v100h300v-100h-100v-100h-100v-100h-800v100h-100v100h-100v600h100v100h200v100h600v-100h200v-100h100v-400h-900v-100h100zM1000 800h-400v-100h-100v-100h600v100h-100v100zM700 1300h100v100h200v-200h-300v100zM700 1100h-100v100h100v-100z" />
    <glyph glyph-name="ecircumflex" unicode="&#xea;" 
d="M600 300v-100h500v100h300v-100h-100v-100h-100v-100h-700v100h-200v100h-100v600h100v100h200v100h600v-100h200v-100h100v-400h-900v-100h100zM1100 1300v-100h100v-100h-200v100h-100v100h-200v-100h-100v-100h-200v100h100v100h100v100h400v-100h100zM1000 700v100
h-400v-100h-100v-100h600v100h-100z" />
    <glyph glyph-name="edieresis" unicode="&#xeb;" 
d="M500 100h-200v100h-100v600h100v100h200v100h600v-100h200v-100h100v-400h-900v-100h100v-100h500v100h300v-100h-100v-100h-100v-100h-700v100zM1000 800h-400v-100h-100v-100h600v100h-100v100zM1200 1400v-200h-200v200h200zM600 1400v-200h-200v200h200z" />
    <glyph glyph-name="igrave" unicode="&#xec;" horiz-adv-x="1200" 
d="M1000 200v-200h-700v200h200v500h-200v200h500v-700h200zM200 1400h200v-100h100v-100h100v-100h-200v100h-200v200zM700 1100v-100h-100v100h100z" />
    <glyph glyph-name="iacute" unicode="&#xed;" horiz-adv-x="1200" 
d="M1000 200v-200h-700v200h200v500h-200v200h500v-700h200zM500 1100v100h100v100h100v100h200v-200h-200v-100h-200zM400 1100h100v-100h-100v100z" />
    <glyph glyph-name="icircumflex" unicode="&#xee;" horiz-adv-x="1200" 
d="M1000 200v-200h-700v200h200v600h-200v200h500v-800h200zM200 1100v100h100v100h100v100h300v-100h100v-100h100v-100h-200v100h-100v100h-100v-100h-100v-100h-200z" />
    <glyph glyph-name="idieresis" unicode="&#xef;" horiz-adv-x="1200" 
d="M1000 200v-200h-700v200h200v600h-200v200h500v-800h200zM200 1200v200h200v-200h-200zM1000 1400v-200h-200v200h200z" />
    <glyph glyph-name="eth" unicode="&#xf0;" 
d="M1000 200v100h100v400h-100v100h-400v-100h-100v-400h100v-100h400zM1100 0h-600v100h-200v100h-100v600h100v100h200v100h300v100h100v100h-400v200h600v-100h100v100h200v-100h-100v-100h100v-1000h-100v-100h-200v-100zM1100 1000h-100v-100h100v100z" />
    <glyph glyph-name="ntilde" unicode="&#xf1;" 
d="M1100 0v700h-100v100h-400v-100h-100v-700h-300v1000h300v-100h100v100h500v-100h200v-100h100v-800h-300zM200 1100v100h100v-100h-100zM1400 1400v-100h-100v100h100zM400 1300v100h400v-100h200v-100h200v-100h-400v100h-200v100h-200zM1300 1300v-100h-100v100h100z
M300 1200v100h100v-100h-100z" />
    <glyph glyph-name="ograve" unicode="&#xf2;" 
d="M1000 200v100h100v400h-100v100h-400v-100h-100v-400h100v-100h400zM1100 0h-600v100h-200v100h-100v600h100v100h200v100h600v-100h200v-100h100v-600h-100v-100h-200v-100zM500 1400h200v-100h100v-100h-300v200zM800 1100v100h100v-100h-100z" />
    <glyph glyph-name="oacute" unicode="&#xf3;" 
d="M1000 200v100h100v400h-100v100h-400v-100h-100v-400h100v-100h400zM1100 0h-600v100h-200v100h-100v600h100v100h200v100h600v-100h200v-100h100v-600h-100v-100h-200v-100zM700 1100v100h100v-100h-100zM800 1300h100v100h200v-200h-300v100z" />
    <glyph glyph-name="ocircumflex" unicode="&#xf4;" 
d="M1100 0h-600v100h-200v100h-100v600h100v100h200v100h600v-100h200v-100h100v-600h-100v-100h-200v-100zM1000 200v100h100v400h-100v100h-400v-100h-100v-400h100v-100h400zM1100 1300v-100h100v-100h-200v100h-100v100h-200v-100h-100v-100h-200v100h100v100h100v100
h400v-100h100z" />
    <glyph glyph-name="otilde" unicode="&#xf5;" 
d="M1100 0h-600v100h-200v100h-100v600h100v100h200v100h600v-100h200v-100h100v-600h-100v-100h-200v-100zM1000 200v100h100v400h-100v100h-400v-100h-100v-400h100v-100h400zM200 1100v100h100v-100h-100zM1400 1400v-100h-100v100h100zM400 1300v100h400v-100h200v-100
h200v-100h-400v100h-200v100h-200zM1200 1200v100h100v-100h-100zM300 1300h100v-100h-100v100z" />
    <glyph glyph-name="odieresis" unicode="&#xf6;" 
d="M1000 200v100h100v400h-100v100h-400v-100h-100v-400h100v-100h400zM1100 0h-600v100h-200v100h-100v600h100v100h200v100h600v-100h200v-100h100v-600h-100v-100h-200v-100zM1200 1400v-200h-200v200h200zM600 1400v-200h-200v200h200z" />
    <glyph glyph-name="divide" unicode="&#xf7;" horiz-adv-x="1400" 
d="M200 800h1000v-200h-1000v200zM800 1000h-200v200h200v-200zM800 200h-200v200h200v-200z" />
    <glyph glyph-name="oslash" unicode="&#xf8;" horiz-adv-x="1800" 
d="M900 500v-100h-100v-100h-100v-100h400v100h100v400h-100v-100h-100v-100h-100zM700 400v100h100v100h100v100h100v100h-300v-100h-100v-300h100zM1300 1000h200v-100h-100v-100h100v-600h-100v-100h-200v-100h-600v100h-100v-100h-200v100h100v100h-100v600h100v100h200
v100h600v-100h100v100z" />
    <glyph glyph-name="ugrave" unicode="&#xf9;" 
d="M1000 200v100h100v700h300v-1000h-300v100h-100v-100h-500v100h-200v100h-100v800h300v-700h100v-100h400zM500 1200v200h200v-100h100v-100h-300zM800 1100v100h100v-100h-100z" />
    <glyph glyph-name="uacute" unicode="&#xfa;" 
d="M1000 200v100h100v700h300v-1000h-300v100h-100v-100h-500v100h-200v100h-100v800h300v-700h100v-100h400zM700 1100v100h100v-100h-100zM800 1300h100v100h200v-200h-300v100z" />
    <glyph glyph-name="ucircumflex" unicode="&#xfb;" 
d="M1000 200v100h100v700h300v-1000h-300v100h-100v-100h-500v100h-200v100h-100v800h300v-700h100v-100h400zM1100 1300v-100h100v-100h-200v100h-100v100h-200v-100h-100v-100h-200v100h100v100h100v100h400v-100h100z" />
    <glyph glyph-name="udieresis" unicode="&#xfc;" 
d="M1000 200v100h100v700h300v-1000h-300v100h-100v-100h-500v100h-200v100h-100v800h300v-700h100v-100h400zM1200 1200h-200v200h200v-200zM600 1400v-200h-200v200h200z" />
    <glyph glyph-name="yacute" unicode="&#xfd;" 
d="M1000 200h-500v100h-200v100h-100v600h300v-500h100v-100h400v100h100v500h300v-900h-100v-100h-100v-100h-100v-100h-700v100h-100v200h100v-100h600v100h100v200h-100v-100zM700 1100v100h100v-100h-100zM800 1300h100v100h200v-200h-300v100z" />
    <glyph glyph-name="thorn" unicode="&#xfe;" 
d="M1000 200v100h100v400h-100v100h-400v-100h-100v-400h100v-100h400zM1100 0h-500v100h-100v-300h-300v1400h300v-300h100v100h500v-100h200v-100h100v-600h-100v-100h-200v-100z" />
    <glyph glyph-name="ydieresis" unicode="&#xff;" 
d="M1000 200h-500v100h-200v100h-100v600h300v-500h100v-100h400v100h100v500h300v-900h-100v-100h-100v-100h-100v-100h-700v100h-100v200h100v-100h600v100h100v200h-100v-100zM1200 1200h-200v200h200v-200zM600 1400v-200h-200v200h200z" />
    <glyph glyph-name="Amacron" unicode="&#x100;" 
d="M1100 0v300h-600v-300h-300v800h100v100h200v100h600v-100h200v-100h100v-800h-300zM1000 800h-400v-100h-100v-200h600v200h-100v100zM1200 1200h-800v200h800v-200z" />
    <glyph glyph-name="amacron" unicode="&#x101;" 
d="M1000 200v100h100v500h-500v-100h-100v-400h100v-100h400zM1100 0v100h-100v-100h-500v100h-200v100h-100v600h100v100h200v100h900v-1000h-300zM500 1200v200h800v-200h-800z" />
    <glyph glyph-name="Abreve" unicode="&#x102;" 
d="M1100 0v300h-600v-300h-300v800h100v100h200v100h600v-100h200v-100h100v-800h-300zM1000 800h-400v-100h-100v-200h600v200h-100v100zM1000 1100h-400v100h-200v200h200v-100h400v100h200v-200h-200v-100z" />
    <glyph glyph-name="abreve" unicode="&#x103;" 
d="M1000 200v100h100v500h-500v-100h-100v-400h100v-100h400zM1100 0v100h-100v-100h-500v100h-200v100h-100v600h100v100h200v100h900v-1000h-300zM1100 1100h-400v100h-200v200h200v-100h400v100h200v-200h-200v-100z" />
    <glyph glyph-name="Aogonek" unicode="&#x104;" 
d="M1100 1100h-100v100h-400v-100h-100v-500h600v500zM200 0v1200h100v100h100v100h800v-100h100v-100h100v-1200h-200v-100h100v-100h-200v600h-600v-400h-300z" />
    <glyph glyph-name="aogonek" unicode="&#x105;" 
d="M1000 200v100h100v500h-500v-100h-100v-400h100v-100h400zM1100 0v100h-100v-100h-200v-100h100v-100h-200v200h-200v100h-200v100h-100v600h100v100h200v100h900v-1000h-300z" />
    <glyph glyph-name="Cacute" unicode="&#x106;" 
d="M1000 200v100h100v100h300v-200h-100v-100h-200v-100h-600v100h-200v100h-100v600h100v100h200v100h600v-100h200v-100h100v-200h-300v100h-100v100h-400v-100h-100v-400h100v-100h400zM700 1100v100h100v-100h-100zM800 1300h100v100h200v-200h-300v100z" />
    <glyph glyph-name="cacute" unicode="&#x107;" 
d="M1000 200v100h100v100h300v-200h-100v-100h-200v-100h-600v100h-200v100h-100v600h100v100h200v100h600v-100h200v-100h100v-200h-300v100h-100v100h-400v-100h-100v-400h100v-100h400zM700 1100v100h100v-100h-100zM800 1300h100v100h200v-200h-300v100z" />
    <glyph glyph-name="Ccircumflex" unicode="&#x108;" 
d="M1100 0h-600v100h-200v100h-100v600h100v100h200v100h600v-100h200v-100h100v-200h-300v100h-100v100h-400v-100h-100v-400h100v-100h400v100h100v100h300v-200h-100v-100h-200v-100zM1100 1300v-100h100v-100h-200v100h-100v100h-200v-100h-100v-100h-200v100h100v100
h100v100h400v-100h100z" />
    <glyph glyph-name="ccircumflex" unicode="&#x109;" 
d="M1100 0h-600v100h-200v100h-100v600h100v100h200v100h600v-100h200v-100h100v-200h-300v100h-100v100h-400v-100h-100v-400h100v-100h400v100h100v100h300v-200h-100v-100h-200v-100zM1100 1300v-100h100v-100h-200v100h-100v100h-200v-100h-100v-100h-200v100h100v100
h100v100h400v-100h100z" />
    <glyph glyph-name="Cdotaccent" unicode="&#x10a;" 
d="M1000 200v100h100v100h300v-200h-100v-100h-200v-100h-600v100h-200v100h-100v700h100v100h200v100h600v-100h200v-100h100v-200h-300v100h-100v100h-400v-100h-100v-500h100v-100h400zM900 1400v-200h-200v200h200z" />
    <glyph glyph-name="cdotaccent" unicode="&#x10b;" 
d="M1000 200v100h100v100h300v-200h-100v-100h-200v-100h-600v100h-200v100h-100v600h100v100h200v100h600v-100h200v-100h100v-200h-300v100h-100v100h-400v-100h-100v-400h100v-100h400zM900 1400v-200h-200v200h200z" />
    <glyph glyph-name="Ccaron" unicode="&#x10c;" 
d="M1100 0h-600v100h-200v100h-100v600h100v100h200v100h600v-100h200v-100h100v-200h-300v100h-100v100h-400v-100h-100v-400h100v-100h400v100h100v100h300v-200h-100v-100h-200v-100zM1100 1300v-100h-100v-100h-400v100h-100v100h-100v100h200v-100h100v-100h200v100
h100v100h200v-100h-100z" />
    <glyph glyph-name="ccaron" unicode="&#x10d;" 
d="M1100 0h-600v100h-200v100h-100v600h100v100h200v100h600v-100h200v-100h100v-200h-300v100h-100v100h-400v-100h-100v-400h100v-100h400v100h100v100h300v-200h-100v-100h-200v-100zM1100 1300v-100h-100v-100h-400v100h-100v100h-100v100h200v-100h100v-100h200v100
h100v100h200v-100h-100z" />
    <glyph glyph-name="Dcaron" unicode="&#x10e;" 
d="M1000 200v100h100v400h-100v100h-500v-600h500zM1100 1300h-100v-100h-100v-100h-300v100h-100v100h-100v100h200v-100h100v-100h100v100h100v100h200v-100zM200 1000h900v-100h200v-100h100v-600h-100v-100h-100v-100h-1000v1000z" />
    <glyph glyph-name="dcaron" unicode="&#x10f;" horiz-adv-x="2300" 
d="M1000 200v100h100v400h-100v100h-400v-100h-100v-400h100v-100h400zM1100 0v100h-100v-100h-500v100h-200v100h-100v600h100v100h200v100h500v-100h100v500h300v-1400h-300zM1900 800h-300v100h100v100h100v400h300v-400h-100v-100h-100v-100z" />
    <glyph glyph-name="Dcroat" unicode="&#x110;" 
d="M1000 200v100h100v800h-100v100h-500v-400h200v-200h-200v-400h500zM1100 1300h200v-100h100v-1000h-100v-100h-100v-100h-1000v600h-200v200h200v600h900v-100z" />
    <glyph glyph-name="dcroat" unicode="&#x111;" 
d="M1000 200v100h100v300h-100v100h-400v-100h-100v-300h100v-100h400zM1100 0v100h-100v-100h-500v100h-200v100h-100v500h100v100h200v100h500v-100h100v200h-200v200h200v200h300v-200h200v-200h-200v-1000h-300z" />
    <glyph glyph-name="Emacron" unicode="&#x112;" horiz-adv-x="1400" 
d="M1000 600v-200h-500v-200h700v-200h-1000v1000h1000v-200h-700v-200h500zM1100 1400v-200h-800v200h800z" />
    <glyph glyph-name="emacron" unicode="&#x113;" 
d="M500 100h-200v100h-100v600h100v100h200v100h600v-100h200v-100h100v-400h-900v-100h100v-100h500v100h300v-100h-100v-100h-100v-100h-700v100zM1000 800h-400v-100h-100v-100h600v100h-100v100zM1200 1400v-200h-800v200h800z" />
    <glyph glyph-name="Ebreve" unicode="&#x114;" horiz-adv-x="1400" 
d="M1000 600v-200h-500v-200h700v-200h-1000v1000h1000v-200h-700v-200h500zM1100 1200h-200v-100h-400v100h-200v200h200v-100h400v100h200v-200z" />
    <glyph glyph-name="ebreve" unicode="&#x115;" 
d="M500 100h-200v100h-100v600h100v100h200v100h600v-100h200v-100h100v-400h-900v-100h100v-100h500v100h300v-100h-100v-100h-100v-100h-700v100zM1000 800h-400v-100h-100v-100h600v100h-100v100zM1200 1400v-200h-200v-100h-400v100h-200v200h200v-100h400v100h200z" />
    <glyph glyph-name="Edotaccent" unicode="&#x116;" horiz-adv-x="1400" 
d="M1000 600v-200h-500v-200h700v-200h-1000v1000h1000v-200h-700v-200h500zM800 1200h-200v200h200v-200z" />
    <glyph glyph-name="edotaccent" unicode="&#x117;" 
d="M500 100h-200v100h-100v600h100v100h200v100h600v-100h200v-100h100v-400h-900v-100h100v-100h500v100h300v-100h-100v-100h-100v-100h-700v100zM1000 800h-400v-100h-100v-100h600v100h-100v100zM900 1400v-200h-200v200h200z" />
    <glyph glyph-name="Eogonek" unicode="&#x118;" horiz-adv-x="1400" 
d="M1000 600h-500v-400h700v-200h-500v-100h100v-100h-200v200h-400v1400h1000v-200h-700v-400h500v-200z" />
    <glyph glyph-name="eogonek" unicode="&#x119;" 
d="M500 100h-200v100h-100v600h100v100h200v100h600v-100h200v-100h100v-400h-900v-100h100v-100h500v100h300v-100h-100v-100h-100v-100h-400v-100h100v-100h-200v200h-200v100zM1000 800h-400v-100h-100v-100h600v100h-100v100z" />
    <glyph glyph-name="Ecaron" unicode="&#x11a;" horiz-adv-x="1400" 
d="M1000 400h-500v-200h700v-200h-1000v1000h1000v-200h-700v-200h500v-200zM1100 1300h-100v-100h-100v-100h-400v100h-100v100h-100v100h200v-100h100v-100h200v100h100v100h200v-100z" />
    <glyph glyph-name="ecaron" unicode="&#x11b;" 
d="M600 300v-100h500v100h300v-100h-100v-100h-100v-100h-700v100h-200v100h-100v600h100v100h200v100h600v-100h200v-100h100v-400h-900v-100h100zM1100 1300v-100h-100v-100h-400v100h-100v100h-100v100h200v-100h100v-100h200v100h100v100h200v-100h-100zM1000 700v100
h-400v-100h-100v-100h600v100h-100z" />
    <glyph glyph-name="Gcircumflex" unicode="&#x11c;" 
d="M1100 0h-600v100h-200v100h-100v600h100v100h200v100h600v-100h200v-200h-300v100h-400v-100h-100v-400h100v-100h400v100h100v100h-300v200h600v-400h-100v-100h-200v-100zM1100 1300v-100h100v-100h-200v100h-100v100h-200v-100h-100v-100h-200v100h100v100h100v100
h400v-100h100z" />
    <glyph glyph-name="gcircumflex" unicode="&#x11d;" 
d="M1000 200v-100h-500v100h-200v100h-100v500h100v100h200v100h500v-100h100v100h300v-900h-100v-100h-100v-100h-100v-100h-700v100h-100v200h100v-100h600v100h100v100h-100zM600 300h400v100h100v300h-100v100h-400v-100h-100v-300h100v-100zM1100 1300v-100h100v-100
h-200v100h-100v100h-200v-100h-100v-100h-200v100h100v100h100v100h400v-100h100z" />
    <glyph glyph-name="Gbreve" unicode="&#x11e;" 
d="M1000 200v100h100v100h-300v200h600v-400h-100v-100h-200v-100h-600v100h-200v100h-100v600h100v100h200v100h600v-100h200v-200h-300v100h-400v-100h-100v-400h100v-100h400zM1200 1400v-200h-200v-100h-400v100h-200v200h200v-100h400v100h200z" />
    <glyph glyph-name="gbreve" unicode="&#x11f;" 
d="M1000 200v-100h-500v100h-200v100h-100v500h100v100h200v100h500v-100h100v100h300v-900h-100v-100h-100v-100h-100v-100h-700v100h-100v200h100v-100h600v100h100v100h-100zM600 300h400v100h100v300h-100v100h-400v-100h-100v-300h100v-100zM1200 1200h-200v-100h-400
v100h-200v200h200v-100h400v100h200v-200z" />
    <glyph glyph-name="Gdotaccent" unicode="&#x120;" 
d="M1000 200v100h100v100h-300v200h600v-400h-100v-100h-200v-100h-600v100h-200v100h-100v700h100v100h200v100h600v-100h200v-200h-300v100h-400v-100h-100v-500h100v-100h400zM900 1200h-200v200h200v-200z" />
    <glyph glyph-name="gdotaccent" unicode="&#x121;" 
d="M1000 200v-100h-500v100h-200v100h-100v500h100v100h200v100h500v-100h100v100h300v-900h-100v-100h-100v-100h-100v-100h-700v100h-100v200h100v-100h600v100h100v100h-100zM600 300h400v100h100v300h-100v100h-400v-100h-100v-300h100v-100zM900 1400v-200h-200v200
h200z" />
    <glyph glyph-name="Gcommaaccent" unicode="&#x122;" 
d="M1000 200v100h100v200h-300v200h600v-500h-100v-100h-200v-100h-200v-200h-200v100h100v100h-300v100h-200v100h-100v1000h100v100h200v100h700v-100h100v-100h100v-200h-300v100h-100v100h-400v-100h-100v-800h100v-100h400z" />
    <glyph glyph-name="gcommaaccent" unicode="&#x123;" 
d="M1000 200v-100h-500v100h-200v100h-100v500h100v100h200v100h500v-100h100v100h300v-900h-100v-100h-100v-100h-100v-100h-700v100h-100v200h100v-100h600v100h100v100h-100zM600 300h400v100h100v300h-100v100h-400v-100h-100v-300h100v-100zM700 1300h100v100h200v-100
h-100v-200h-200v200z" />
    <glyph glyph-name="Hcircumflex" unicode="&#x124;" 
d="M1100 0v400h-600v-400h-300v1000h300v-400h600v400h300v-1000h-300zM1100 1300v-100h100v-100h-200v100h-100v100h-200v-100h-100v-100h-200v100h100v100h100v100h400v-100h100z" />
    <glyph glyph-name="hcircumflex" unicode="&#x125;" 
d="M1100 0v500h-100v100h-400v-100h-100v-500h-300v1000h300v-300h100v100h500v-100h200v-100h100v-600h-300zM1100 1300v-100h100v-100h-200v100h-100v100h-200v-100h-100v-100h-200v100h100v100h100v100h400v-100h100z" />
    <glyph glyph-name="Hbar" unicode="&#x126;" 
d="M1100 0v600h-600v-600h-300v1000h-200v200h200v200h300v-200h600v200h300v-200h200v-200h-200v-1000h-300zM1100 1000h-600v-200h600v200z" />
    <glyph glyph-name="hbar" unicode="&#x127;" 
d="M1100 0v600h-100v100h-400v-100h-100v-600h-300v1000h-200v200h200v200h300v-200h200v-200h-200v-200h100v100h500v-100h200v-100h100v-700h-300z" />
    <glyph glyph-name="Itilde" unicode="&#x128;" horiz-adv-x="1200" 
d="M100 1200h100v-100h-100v100zM1000 200v-200h-700v200h200v600h-200v200h700v-200h-200v-600h200zM1100 1300v100h100v-100h-100zM200 1300h100v-100h-100v100zM500 1200v100h-200v100h300v-100h200v-100h200v-100h-400v100h-100zM1000 1300h100v-100h-100v100z" />
    <glyph glyph-name="itilde" unicode="&#x129;" horiz-adv-x="1200" 
d="M1000 200v-200h-700v200h200v600h-200v200h500v-800h200zM100 1200h100v-100h-100v100zM1100 1300v100h100v-100h-100zM200 1300h100v-100h-100v100zM500 1200v100h-200v100h400v-100h100v-100h200v-100h-400v100h-100zM1000 1300h100v-100h-100v100z" />
    <glyph glyph-name="Imacron" unicode="&#x12a;" horiz-adv-x="1200" 
d="M1000 200v-200h-700v200h200v600h-200v200h700v-200h-200v-600h200zM200 1200v200h800v-200h-800z" />
    <glyph glyph-name="imacron" unicode="&#x12b;" horiz-adv-x="1200" 
d="M1000 200v-200h-700v200h200v600h-200v200h500v-800h200zM200 1200v200h800v-200h-800z" />
    <glyph glyph-name="Ibreve" unicode="&#x12c;" horiz-adv-x="1200" 
d="M1000 200v-200h-700v200h200v600h-200v200h700v-200h-200v-600h200zM200 1200v200h200v-100h400v100h200v-200h-200v-100h-400v100h-200z" />
    <glyph glyph-name="ibreve" unicode="&#x12d;" horiz-adv-x="1200" 
d="M1000 200v-200h-700v200h200v600h-200v200h500v-800h200zM200 1400h200v-100h400v100h200v-200h-200v-100h-400v100h-200v200z" />
    <glyph glyph-name="Iogonek" unicode="&#x12e;" 
d="M700 -200v200h-400v200h300v1000h-300v200h900v-200h-300v-1000h300v-200h-400v-100h100v-100h-200z" />
    <glyph glyph-name="iogonek" unicode="&#x12f;" horiz-adv-x="1200" 
d="M1100 0h-400v-100h100v-100h-200v200h-400v200h300v600h-300v200h600v-800h300v-200zM500 1400h300v-200h-300v200z" />
    <glyph glyph-name="Idotaccent" unicode="&#x130;" horiz-adv-x="1200" 
d="M1000 200v-200h-700v200h200v600h-200v200h700v-200h-200v-600h200zM500 1200v200h300v-200h-300z" />
    <glyph glyph-name="dotlessi" unicode="&#x131;" horiz-adv-x="1200" 
d="M1100 0h-900v200h300v600h-300v200h600v-800h300v-200z" />
    <glyph glyph-name="IJ" unicode="&#x132;" horiz-adv-x="2200" 
d="M1000 200h-100v300h300v-200h100v-100h300v100h100v1100h300v-1200h-100v-100h-100v-100h-700v100h-100v100zM700 200h200v-200h-700v200h200v1000h-200v200h700v-200h-200v-1000z" />
    <glyph glyph-name="ij" unicode="&#x133;" horiz-adv-x="1800" 
d="M700 200h200v-100h100v-100h200v100h100v700h-200v200h500v-1000h-100v-100h-200v-100h-400v100h-200v100h-500v200h200v600h-200v200h500v-800zM1600 1400v-200h-300v200h300zM400 1200v200h300v-200h-300z" />
    <glyph glyph-name="Jcircumflex" unicode="&#x134;" 
d="M1000 200v100h100v700h300v-800h-100v-100h-100v-100h-800v100h-100v100h-100v300h300v-200h100v-100h400zM1100 1100v100h-100v100h-100v-100h-100v-100h-200v100h100v100h100v100h300v-100h100v-100h100v-100h-200z" />
    <glyph glyph-name="jcircumflex" unicode="&#x135;" horiz-adv-x="1400" 
d="M1100 0v-100h-200v-100h-400v100h-200v100h-100v200h300v-100h100v-100h200v100h100v700h-200v200h500v-1000h-100zM1100 1100v100h-100v100h-100v-100h-100v-100h-200v100h100v100h100v100h300v-100h100v-100h100v-100h-200z" />
    <glyph glyph-name="Kcommaaccent" unicode="&#x136;" horiz-adv-x="1800" 
d="M1600 100v-100h-400v100h-100v100h-100v100h-100v100h-100v100h-100v100h-200v-600h-300v1400h300v-600h200v100h100v100h100v100h100v100h100v100h100v100h400v-100h-100v-100h-100v-100h-100v-100h-100v-100h-100v-100h-100v-200h100v-100h100v-100h100v-100h100v-100
h100v-100h100zM900 -100v-100h-300v100h100v200h300v-200h-100z" />
    <glyph glyph-name="kcommaaccent" unicode="&#x137;" 
d="M700 400h-200v-400h-300v1400h300v-800h200v100h100v100h100v100h100v100h400v-100h-100v-100h-100v-100h-100v-100h-100v-200h100v-100h100v-100h100v-100h100v-100h-400v100h-100v100h-100v100h-100v100zM800 -200h-300v100h100v200h300v-200h-100v-100z" />
    <glyph glyph-name="kgreenlandic" unicode="&#x138;" 
d="M700 400h-200v-400h-300v1000h300v-400h200v100h100v100h100v100h100v100h400v-100h-100v-100h-100v-100h-100v-100h-100v-200h100v-100h100v-100h100v-100h100v-100h-400v100h-100v100h-100v100h-100v100z" />
    <glyph glyph-name="Lacute" unicode="&#x139;" 
d="M200 1000h300v-800h900v-200h-1200v1000zM700 1200v100h100v100h200v-200h-300zM700 1100h-100v100h100v-100z" />
    <glyph glyph-name="lacute" unicode="&#x13a;" 
d="M1000 200h200v-200h-700v200h200v600h-200v200h500v-800zM1100 1200h-300v100h100v100h200v-200zM700 1200h100v-100h-100v100z" />
    <glyph glyph-name="Lcommaaccent" unicode="&#x13b;" 
d="M700 -100h100v100h-600v1400h300v-1200h900v-200h-500v-200h-200v100z" />
    <glyph glyph-name="lcommaaccent" unicode="&#x13c;" 
d="M1000 200h200v-200h-300v-200h-200v100h100v100h-300v200h200v1000h-200v200h500v-1200z" />
    <glyph glyph-name="Lcaron" unicode="&#x13d;" 
d="M200 1000h300v-800h900v-200h-1200v1000zM1100 1300v-100h-100v-100h-300v100h-100v100h-100v100h200v-100h100v-100h100v100h100v100h200v-100h-100z" />
    <glyph glyph-name="lcaron" unicode="&#x13e;" horiz-adv-x="2000" 
d="M1000 200h200v-200h-700v200h200v1000h-200v200h500v-1200zM1700 1400v-400h-100v-100h-100v-100h-300v100h100v100h100v400h300z" />
    <glyph glyph-name="Ldot" unicode="&#x13f;" 
d="M800 900h300v-200h-300v200zM1400 200v-200h-1200v1400h300v-1200h900z" />
    <glyph glyph-name="ldot" unicode="&#x140;" horiz-adv-x="2000" 
d="M1000 200h200v-200h-700v200h200v1000h-200v200h500v-1200zM1500 700h-300v200h300v-200z" />
    <glyph glyph-name="Lslash" unicode="&#x141;" 
d="M1400 0h-1200v600h-200v100h100v100h100v600h300v-400h200v-100h-100v-100h-100v-600h900v-200z" />
    <glyph glyph-name="lslash" unicode="&#x142;" 
d="M1000 200h200v-200h-700v200h200v400h-200v100h100v100h100v400h-200v200h500v-400h200v-100h-100v-100h-100v-600z" />
    <glyph glyph-name="Nacute" unicode="&#x143;" 
d="M900 500h100v-100h200v500h200v-900h-200v100h-200v100h-200v100h-100v100h-100v100h-200v-500h-200v900h200v-100h200v-100h200v-100h100v-100zM1100 1100h-300v100h100v100h200v-200zM800 1000h-100v100h100v-100z" />
    <glyph glyph-name="nacute" unicode="&#x144;" 
d="M1100 0v700h-100v100h-400v-100h-100v-700h-300v1000h300v-100h100v100h500v-100h200v-100h100v-800h-300zM700 1100v100h100v-100h-100zM800 1300h100v100h200v-200h-300v100z" />
    <glyph glyph-name="Ncommaaccent" unicode="&#x145;" 
d="M1000 200v100h-100v100h-100v100h-100v200h-100v100h-100v-800h-300v1400h200v-100h100v-100h100v-100h100v-100h100v-100h100v-200h100v-100h100v800h300v-1400h-200v100h-100v100h-100zM800 -200h-300v100h100v200h300v-200h-100v-100z" />
    <glyph glyph-name="ncommaaccent" unicode="&#x146;" 
d="M1100 0v700h-100v100h-400v-100h-100v-700h-300v1000h300v-100h100v100h500v-100h200v-100h100v-800h-300zM800 -200h-300v100h100v200h300v-200h-100v-100z" />
    <glyph glyph-name="Ncaron" unicode="&#x147;" 
d="M1000 200h-200v100h-100v100h-100v100h-200v-500h-200v900h200v-100h200v-100h200v-100h100v-100h100v-100h200v500h200v-900h-200v100h-200v100zM1100 1300v-100h-100v-100h-400v100h-100v100h-100v100h200v-100h100v-100h200v100h100v100h200v-100h-100z" />
    <glyph glyph-name="ncaron" unicode="&#x148;" 
d="M1100 0v700h-100v100h-400v-100h-100v-700h-300v1000h300v-100h100v100h500v-100h200v-100h100v-800h-300zM1100 1300v-100h-100v-100h-400v100h-100v100h-100v100h200v-100h100v-100h200v100h100v100h200v-100h-100z" />
    <glyph glyph-name="napostrophe" unicode="&#x149;" 
d="M100 1400h300v-200h-100v-100h-300v100h100v200zM1100 0v700h-100v100h-400v-100h-100v-700h-300v1000h300v-100h100v100h500v-100h200v-100h100v-800h-300z" />
    <glyph glyph-name="Eng" unicode="&#x14a;" 
d="M1000 200v100h-100v100h-100v100h-100v200h-100v100h-100v-700h-300v1300h200v-100h100v-100h100v-100h100v-100h100v-100h100v-200h100v-100h100v800h300v-1400h-100v-100h-200v-100h-700v200h600v100h100v100h-100z" />
    <glyph glyph-name="eng" unicode="&#x14b;" 
d="M500 100h-300v900h300v-100h100v100h500v-100h200v-100h100v-800h-100v-100h-200v-100h-700v200h600v100h100v600h-100v100h-400v-100h-100v-600z" />
    <glyph glyph-name="Omacron" unicode="&#x14c;" 
d="M1000 200v100h100v400h-100v100h-400v-100h-100v-400h100v-100h400zM1100 0h-600v100h-200v100h-100v600h100v100h200v100h600v-100h200v-100h100v-600h-100v-100h-200v-100zM1200 1400v-200h-800v200h800z" />
    <glyph glyph-name="omacron" unicode="&#x14d;" 
d="M1000 200v100h100v400h-100v100h-400v-100h-100v-400h100v-100h400zM1100 0h-600v100h-200v100h-100v600h100v100h200v100h600v-100h200v-100h100v-600h-100v-100h-200v-100zM1200 1400v-200h-800v200h800z" />
    <glyph glyph-name="Obreve" unicode="&#x14e;" 
d="M500 100h-200v100h-100v600h100v100h200v100h600v-100h200v-100h100v-600h-100v-100h-200v-100h-600v100zM1000 200v100h100v400h-100v100h-400v-100h-100v-400h100v-100h400zM1200 1400v-200h-200v-100h-400v100h-200v200h200v-100h400v100h200z" />
    <glyph glyph-name="obreve" unicode="&#x14f;" 
d="M500 100h-200v100h-100v600h100v100h200v100h600v-100h200v-100h100v-600h-100v-100h-200v-100h-600v100zM1000 200v100h100v400h-100v100h-400v-100h-100v-400h100v-100h400zM1200 1400v-200h-200v-100h-400v100h-200v200h200v-100h400v100h200z" />
    <glyph glyph-name="Ohungarumlaut" unicode="&#x150;" 
d="M1100 0h-600v100h-200v100h-100v600h100v100h200v100h600v-100h200v-100h100v-600h-100v-100h-200v-100zM1000 200v100h100v400h-100v100h-400v-100h-100v-400h100v-100h400zM1100 1300v100h200v-200h-300v100h100zM500 1200h100v-100h-100v100zM1000 1100h-100v100h100
v-100zM700 1300v100h200v-200h-300v100h100z" />
    <glyph glyph-name="ohungarumlaut" unicode="&#x151;" 
d="M1100 0h-600v100h-200v100h-100v600h100v100h200v100h600v-100h200v-100h100v-600h-100v-100h-200v-100zM1000 200v100h100v400h-100v100h-400v-100h-100v-400h100v-100h400zM1100 1300v100h200v-200h-300v100h100zM500 1200h100v-100h-100v100zM1000 1100h-100v100h100
v-100zM700 1300v100h200v-200h-300v100h100z" />
    <glyph glyph-name="OE" unicode="&#x152;" horiz-adv-x="2000" 
d="M1100 0v100h-100v-100h-500v100h-200v100h-100v1000h100v100h200v100h500v-100h100v100h700v-200h-500v-400h500v-200h-500v-400h500v-200h-700zM600 300v-100h300v100h100v800h-100v100h-300v-100h-100v-800h100z" />
    <glyph glyph-name="oe" unicode="&#x153;" horiz-adv-x="2400" 
d="M600 300v-100h300v100h100v400h-100v100h-300v-100h-100v-400h100zM1300 700v-100h600v100h-100v100h-400v-100h-100zM1300 1000h600v-100h200v-100h100v-400h-900v-100h100v-100h500v100h300v-100h-100v-100h-100v-100h-700v100h-300v-100h-500v100h-200v100h-100v600
h100v100h200v100h500v-100h300v100z" />
    <glyph glyph-name="Racute" unicode="&#x154;" 
d="M200 1000h900v-100h200v-100h100v-300h-100v-100h-200v-100h100v-100h100v-100h100v-100h-400v100h-100v100h-100v100h-300v-300h-300v1000zM1000 800h-500v-300h500v100h100v100h-100v100zM700 1100v100h100v-100h-100zM800 1300h100v100h200v-200h-300v100z" />
    <glyph glyph-name="racute" unicode="&#x155;" horiz-adv-x="1400" 
d="M700 400h-100v-400h-300v1000h300v-200h100v100h200v100h400v-200h-400v-100h-100v-100h-100v-200zM700 1100v100h100v-100h-100zM800 1300h100v100h200v-200h-300v100z" />
    <glyph glyph-name="Rcommaaccent" unicode="&#x156;" 
d="M1000 200v100h-100v100h-100v100h-300v-500h-300v1400h900v-100h200v-100h100v-500h-100v-100h-200v-100h100v-100h100v-100h100v-100h100v-200h-300v100h-100v100h-100zM1100 1100h-100v100h-500v-500h500v100h100v300zM800 -200h-300v100h100v200h300v-200h-100v-100z
" />
    <glyph glyph-name="rcommaaccent" unicode="&#x157;" horiz-adv-x="1400" 
d="M700 400h-100v-400h-300v1000h300v-200h100v100h200v100h400v-200h-400v-100h-100v-100h-100v-200zM600 -100h100v200h300v-200h-100v-100h-300v100z" />
    <glyph glyph-name="Rcaron" unicode="&#x158;" 
d="M200 1000h900v-100h200v-100h100v-300h-100v-100h-200v-100h100v-100h100v-100h100v-100h-400v100h-100v100h-100v100h-300v-300h-300v1000zM1100 1300h-100v-100h-100v-100h-300v100h-100v100h-100v100h200v-100h100v-100h100v100h100v100h200v-100zM1000 700v100h-500
v-300h500v100h100v100h-100z" />
    <glyph glyph-name="rcaron" unicode="&#x159;" horiz-adv-x="1400" 
d="M700 400h-100v-400h-300v1000h300v-200h100v100h200v100h400v-200h-400v-100h-100v-100h-100v-200zM1100 1300h-100v-100h-100v-100h-300v100h-100v100h-100v100h200v-100h100v-100h100v100h100v100h200v-100z" />
    <glyph glyph-name="Sacute" unicode="&#x15a;" 
d="M1000 200v200h-500v100h-100v100h-100v200h100v100h100v100h600v-100h100v-200h-200v100h-400v-200h500v-100h100v-100h100v-200h-100v-100h-100v-100h-700v100h-100v200h200v-100h500zM700 1100v100h100v-100h-100zM800 1300h100v100h200v-200h-300v100z" />
    <glyph glyph-name="sacute" unicode="&#x15b;" 
d="M1000 200v200h-500v100h-100v100h-100v200h100v100h100v100h600v-100h100v-200h-200v100h-400v-200h500v-100h100v-100h100v-200h-100v-100h-100v-100h-700v100h-100v200h200v-100h500zM700 1100v100h100v-100h-100zM800 1300h100v100h200v-200h-300v100z" />
    <glyph glyph-name="Scircumflex" unicode="&#x15c;" 
d="M1100 0h-700v100h-100v200h200v-100h500v200h-500v100h-100v100h-100v200h100v100h100v100h600v-100h100v-200h-200v100h-400v-200h500v-100h100v-100h100v-200h-100v-100h-100v-100zM1100 1300v-100h100v-100h-200v100h-100v100h-200v-100h-100v-100h-200v100h100v100
h100v100h400v-100h100z" />
    <glyph glyph-name="scircumflex" unicode="&#x15d;" 
d="M1100 0h-700v100h-100v200h200v-100h500v200h-500v100h-100v100h-100v200h100v100h100v100h600v-100h100v-200h-200v100h-400v-200h500v-100h100v-100h100v-200h-100v-100h-100v-100zM1100 1300v-100h100v-100h-200v100h-100v100h-200v-100h-100v-100h-200v100h100v100
h100v100h400v-100h100z" />
    <glyph glyph-name="Scedilla" unicode="&#x15e;" 
d="M1100 0h-200v-200h-200v100h100v100h-300v100h-200v100h-100v200h300v-100h100v-100h400v100h100v200h-200v100h-400v100h-200v100h-100v400h100v100h200v100h600v-100h200v-100h100v-200h-300v100h-100v100h-400v-100h-100v-200h200v-100h400v-100h200v-100h100v-400
h-100v-100h-200v-100z" />
    <glyph glyph-name="scedilla" unicode="&#x15f;" 
d="M1000 200v200h-500v100h-100v100h-100v200h100v100h100v100h600v-100h100v-200h-200v100h-400v-200h500v-100h100v-100h100v-200h-100v-100h-100v-100h-200v-200h-200v100h100v100h-400v100h-100v200h200v-100h500z" />
    <glyph glyph-name="Scaron" unicode="&#x160;" 
d="M1100 0h-700v100h-100v200h200v-100h500v200h-500v100h-100v100h-100v200h100v100h100v100h600v-100h100v-200h-200v100h-400v-200h500v-100h100v-100h100v-200h-100v-100h-100v-100zM1100 1300v-100h-100v-100h-400v100h-100v100h-100v100h200v-100h100v-100h200v100
h100v100h200v-100h-100z" />
    <glyph glyph-name="scaron" unicode="&#x161;" 
d="M1100 0h-700v100h-100v200h200v-100h500v200h-500v100h-100v100h-100v200h100v100h100v100h600v-100h100v-200h-200v100h-400v-200h500v-100h100v-100h100v-200h-100v-100h-100v-100zM1100 1300v-100h-100v-100h-400v100h-100v100h-100v100h200v-100h100v-100h200v100
h100v100h200v-100h-100z" />
    <glyph glyph-name="Tcommaaccent" unicode="&#x162;" 
d="M700 -200v100h100v100h-100v1200h-500v200h1300v-200h-500v-1200h-100v-200h-200z" />
    <glyph glyph-name="tcommaaccent" unicode="&#x163;" 
d="M1000 -200h-200v100h100v100h-200v100h-100v100h-100v600h-300v200h300v200h300v-200h400v-200h-400v-500h100v-100h300v-200h-200v-200z" />
    <glyph glyph-name="Tcaron" unicode="&#x164;" 
d="M1100 1300v-100h-100v-100h-300v100h-100v100h-100v100h200v-100h100v-100h100v100h100v100h200v-100h-100zM200 1000h1300v-200h-500v-800h-300v800h-500v200z" />
    <glyph glyph-name="tcaron" unicode="&#x165;" horiz-adv-x="2200" 
d="M1400 900h100v100h100v400h300v-400h-100v-100h-100v-100h-300v100zM900 300v-100h300v-200h-500v100h-100v100h-100v600h-300v200h300v200h300v-200h400v-200h-400v-500h100z" />
    <glyph glyph-name="Tbar" unicode="&#x166;" 
d="M1000 600v-600h-300v600h-200v200h200v400h-500v200h1300v-200h-500v-400h200v-200h-200z" />
    <glyph glyph-name="tbar" unicode="&#x167;" 
d="M900 300v-100h300v-200h-500v100h-100v100h-100v200h-300v200h300v200h-300v200h300v200h300v-200h400v-200h-400v-200h400v-200h-400v-100h100z" />
    <glyph glyph-name="Utilde" unicode="&#x168;" 
d="M1000 200v100h100v700h300v-800h-100v-100h-200v-100h-600v100h-200v100h-100v800h300v-700h100v-100h400zM200 1100v100h100v-100h-100zM1400 1400v-100h-100v100h100zM400 1300v100h400v-100h200v-100h200v-100h-400v100h-200v100h-200zM1300 1300v-100h-100v100h100z
M300 1200v100h100v-100h-100z" />
    <glyph glyph-name="utilde" unicode="&#x169;" 
d="M1000 200v100h100v700h300v-1000h-300v100h-100v-100h-500v100h-200v100h-100v800h300v-700h100v-100h400zM200 1100v100h100v-100h-100zM1400 1400v-100h-100v100h100zM400 1300v100h400v-100h200v-100h200v-100h-400v100h-200v100h-200zM1300 1300v-100h-100v100h100z
M300 1200v100h100v-100h-100z" />
    <glyph glyph-name="Umacron" unicode="&#x16a;" 
d="M1000 200v100h100v700h300v-800h-100v-100h-200v-100h-600v100h-200v100h-100v800h300v-700h100v-100h400zM400 1400h800v-200h-800v200z" />
    <glyph glyph-name="umacron" unicode="&#x16b;" 
d="M1000 200v100h100v700h300v-1000h-300v100h-100v-100h-500v100h-200v100h-100v800h300v-700h100v-100h400zM400 1400h800v-200h-800v200z" />
    <glyph glyph-name="Ubreve" unicode="&#x16c;" 
d="M1000 200v100h100v700h300v-800h-100v-100h-200v-100h-600v100h-200v100h-100v800h300v-700h100v-100h400zM1000 1100h-400v100h-200v200h200v-100h400v100h200v-200h-200v-100z" />
    <glyph glyph-name="ubreve" unicode="&#x16d;" 
d="M1000 200v100h100v700h300v-1000h-300v100h-100v-100h-500v100h-200v100h-100v800h300v-700h100v-100h400zM1000 1100h-400v100h-200v200h200v-100h400v100h200v-200h-200v-100z" />
    <glyph glyph-name="Uring" unicode="&#x16e;" 
d="M1000 200v100h100v700h300v-800h-100v-100h-200v-100h-600v100h-200v100h-100v800h300v-700h100v-100h400zM1100 1100v200h200v-200h-200zM1100 1300h-600v100h600v-100zM1100 1000h-600v100h600v-100zM500 1100h-200v200h200v-200z" />
    <glyph glyph-name="uring" unicode="&#x16f;" 
d="M1000 200v100h100v500h300v-800h-300v100h-100v-100h-500v100h-200v100h-100v600h300v-500h100v-100h400zM1100 1100v-100h-100v300h100v-100h100v-100h-100zM500 1200v100h100v-300h-100v100h-100v100h100zM1000 1300h-400v100h400v-100zM1000 1000v-100h-400v100h400z
" />
    <glyph glyph-name="Uhungarumlaut" unicode="&#x170;" 
d="M1000 200v100h100v700h300v-800h-100v-100h-200v-100h-600v100h-200v100h-100v800h300v-700h100v-100h400zM1100 1300v100h200v-200h-300v100h100zM500 1200h100v-100h-100v100zM1000 1100h-100v100h100v-100zM700 1300v100h200v-200h-300v100h100z" />
    <glyph glyph-name="uhungarumlaut" unicode="&#x171;" 
d="M1000 200v100h100v700h300v-1000h-300v100h-100v-100h-500v100h-200v100h-100v800h300v-700h100v-100h400zM1100 1300v100h200v-200h-300v100h100zM500 1200h100v-100h-100v100zM1000 1100h-100v100h100v-100zM700 1300v100h200v-200h-300v100h100z" />
    <glyph glyph-name="Uogonek" unicode="&#x172;" 
d="M1100 0h-300v-100h100v-100h-200v200h-200v100h-200v100h-100v1200h300v-1100h100v-100h400v100h100v1100h300v-1200h-100v-100h-200v-100z" />
    <glyph glyph-name="uogonek" unicode="&#x173;" 
d="M1100 0v100h-100v-100h-200v-100h100v-100h-200v200h-200v100h-200v100h-100v800h300v-700h100v-100h400v100h100v700h300v-1000h-300z" />
    <glyph glyph-name="Wcircumflex" unicode="&#x174;" horiz-adv-x="1800" 
d="M600 300h100v700h300v-700h100v-100h100v100h100v700h300v-800h-100v-100h-100v-100h-400v100h-100v100h-100v-100h-100v-100h-400v100h-100v100h-100v800h300v-700h100v-100h100v100zM1100 1300v-100h100v-100h-200v100h-100v100h-100v-100h-100v-100h-200v100h100v100
h100v100h300v-100h100z" />
    <glyph glyph-name="wcircumflex" unicode="&#x175;" horiz-adv-x="1800" 
d="M600 300h100v600h300v-600h100v-100h200v800h300v-800h-100v-100h-100v-100h-400v100h-100v100h-100v-100h-100v-100h-400v100h-100v100h-100v800h300v-800h200v100zM1100 1300v-100h100v-100h-200v100h-100v100h-100v-100h-100v-100h-200v100h100v100h100v100h300v-100
h100z" />
    <glyph glyph-name="Ycircumflex" unicode="&#x176;" 
d="M200 1000h300v-100h100v-200h100v-100h200v100h100v200h100v100h300v-200h-100v-100h-100v-200h-100v-100h-100v-400h-400v400h-100v100h-100v200h-100v100h-100v200zM1100 1300v-100h100v-100h-200v100h-100v100h-200v-100h-100v-100h-200v100h100v100h100v100h400v-100
h100z" />
    <glyph glyph-name="ycircumflex" unicode="&#x177;" 
d="M1000 200h-500v100h-200v100h-100v600h300v-500h100v-100h400v100h100v500h300v-900h-100v-100h-100v-100h-100v-100h-700v100h-100v200h100v-100h600v100h100v200h-100v-100zM1100 1300v-100h100v-100h-200v100h-100v100h-200v-100h-100v-100h-200v100h100v100h100v100
h400v-100h100z" />
    <glyph glyph-name="Ydieresis" unicode="&#x178;" 
d="M1000 400v-400h-400v400h-100v100h-100v200h-100v100h-100v200h300v-100h100v-200h100v-100h200v100h100v200h100v100h300v-200h-100v-100h-100v-200h-100v-100h-100zM1200 1400v-200h-200v200h200zM600 1400v-200h-200v200h200z" />
    <glyph glyph-name="Zacute" unicode="&#x179;" 
d="M600 500h100v100h100v100h100v100h-600v200h1100v-200h-100v-100h-100v-100h-100v-100h-100v-100h-100v-100h-100v-100h600v-200h-1100v200h100v100h100v100h100v100zM1200 1400v-200h-300v100h100v100h200zM800 1100v100h100v-100h-100z" />
    <glyph glyph-name="zacute" unicode="&#x17a;" 
d="M600 500h100v100h100v100h100v100h-600v200h1100v-200h-100v-100h-100v-100h-100v-100h-100v-100h-100v-100h-100v-100h600v-200h-1100v200h100v100h100v100h100v100zM1200 1400v-200h-300v100h100v100h200zM800 1100v100h100v-100h-100z" />
    <glyph glyph-name="Zdotaccent" unicode="&#x17b;" 
d="M900 500v-100h-100v-100h-100v-100h700v-200h-1100v300h100v100h100v100h100v100h100v100h200v100h100v100h-700v200h1100v-300h-100v-100h-100v-100h-100v-100h-200zM700 1400h300v-200h-300v200z" />
    <glyph glyph-name="zdotaccent" unicode="&#x17c;" 
d="M600 500h100v100h100v100h100v100h-600v200h1100v-200h-100v-100h-100v-100h-100v-100h-100v-100h-100v-100h-100v-100h600v-200h-1100v200h100v100h100v100h100v100zM700 1400h300v-200h-300v200z" />
    <glyph glyph-name="Zcaron" unicode="&#x17d;" 
d="M1200 600h-100v-100h-100v-100h-100v-100h-100v-100h600v-200h-1100v200h100v100h100v100h100v100h100v100h100v100h100v100h-600v200h1100v-200h-100v-100h-100v-100zM1100 1300v-100h-100v-100h-300v100h-100v100h-100v100h200v-100h100v-100h100v100h100v100h200v-100
h-100z" />
    <glyph glyph-name="zcaron" unicode="&#x17e;" 
d="M1200 600h-100v-100h-100v-100h-100v-100h-100v-100h600v-200h-1100v200h100v100h100v100h100v100h100v100h100v100h100v100h-600v200h1100v-200h-100v-100h-100v-100zM1100 1300v-100h-100v-100h-300v100h-100v100h-100v100h200v-100h100v-100h100v100h100v100h200v-100
h-100z" />
    <glyph glyph-name="longs" unicode="&#x17f;" horiz-adv-x="1400" 
d="M200 1000h300v200h100v100h100v100h500v-200h-400v-1200h-300v800h-300v200z" />
    <glyph glyph-name="florin" unicode="&#x192;" 
d="M500 100h100v500h-400v200h400v300h100v100h100v100h100v100h400v-200h-300v-100h-100v-300h400v-200h-400v-500h-100v-100h-100v-100h-100v-100h-400v200h300v100z" />
    <glyph glyph-name="uni0237" unicode="&#x237;" horiz-adv-x="1400" 
d="M500 100h100v-100h200v100h100v700h-200v200h500v-1000h-100v-100h-200v-100h-400v100h-200v100h-100v200h300v-100z" />
    <glyph glyph-name="circumflex" unicode="&#x2c6;" horiz-adv-x="1200" 
d="M200 1100v100h100v100h100v100h300v-100h100v-100h100v-100h-200v100h-100v100h-100v-100h-100v-100h-200z" />
    <glyph glyph-name="caron" unicode="&#x2c7;" horiz-adv-x="1200" 
d="M200 1300v100h200v-100h100v-100h100v100h100v100h200v-100h-100v-100h-100v-100h-300v100h-100v100h-100z" />
    <glyph glyph-name="uni02CA" unicode="&#x2ca;" horiz-adv-x="1400" 
d="M500 1100v100h100v100h100v100h200v-200h-200v-100h-200zM400 1100h100v-100h-100v100z" />
    <glyph glyph-name="uni02CB" unicode="&#x2cb;" horiz-adv-x="1400" 
d="M500 1200v200h200v-100h100v-100h100v-100h-200v100h-200zM1000 1100v-100h-100v100h100z" />
    <glyph glyph-name="breve" unicode="&#x2d8;" horiz-adv-x="1200" 
d="M1000 1200h-200v-100h-400v100h-200v200h200v-100h400v100h200v-200z" />
    <glyph glyph-name="dotaccent" unicode="&#x2d9;" horiz-adv-x="1200" 
d="M800 1400v-200h-300v200h300z" />
    <glyph glyph-name="ring" unicode="&#x2da;" horiz-adv-x="1400" 
d="M1100 1100h-100v-100h-100v300h100v-100h100v-100zM400 1200v100h100v-300h-100v100h-100v100h100zM500 1400h400v-100h-400v100zM500 1000h400v-100h-400v100z" />
    <glyph glyph-name="ogonek" unicode="&#x2db;" horiz-adv-x="800" 
d="M500 -200h-200v200h100v-100h100v-100z" />
    <glyph glyph-name="tilde" unicode="&#x2dc;" 
d="M200 1100v100h100v-100h-100zM1400 1300h-100v100h100v-100zM400 1200h-100v100h100v-100zM400 1400h400v-100h200v-100h200v-100h-400v100h-200v100h-200v100zM1300 1300v-100h-100v100h100z" />
    <glyph glyph-name="hungarumlaut" unicode="&#x2dd;" horiz-adv-x="1800" 
d="M1100 1300h100v100h200v-200h-200v-100h-200v100h100v100zM500 1200h100v100h100v100h200v-200h-200v-100h-200v100zM400 1100h100v-100h-100v100zM1000 1100v-100h-100v100h100z" />
    <glyph glyph-name="uni03A9" unicode="&#x3a9;" 
d="M700 400v-400h-500v300h100v-100h200v200h-100v100h-100v100h-100v600h100v100h200v100h600v-100h200v-100h100v-600h-100v-100h-100v-100h-100v-200h200v100h100v-300h-500v400h100v100h100v600h-100v100h-400v-100h-100v-600h100v-100h100z" />
    <glyph glyph-name="pi" unicode="&#x3c0;" 
d="M500 100h-100v700h-200v100h100v100h1100v-100h-100v-600h-100v-100h-100v-100h-100v700h-300v-500h-100v-100h-100v-100zM400 0h-100v100h100v-100zM1500 1100v-100h-100v100h100zM200 700h-100v100h100v-100zM1000 0h-100v100h100v-100z" />
    <glyph glyph-name="uni2010" unicode="&#x2010;" 
d="M200 800h1200v-200h-1200v200z" />
    <glyph glyph-name="uni2011" unicode="&#x2011;" 
d="M200 800h1200v-200h-1200v200z" />
    <glyph glyph-name="uni2012" unicode="&#x2012;" 
d="M200 800h1200v-200h-1200v200z" />
    <glyph glyph-name="endash" unicode="&#x2013;" horiz-adv-x="1000" 
d="M200 800h600v-200h-600v200z" />
    <glyph glyph-name="emdash" unicode="&#x2014;" 
d="M0 600v200h1400v-200h-1400z" />
    <glyph glyph-name="afii00208" unicode="&#x2015;" 
d="M0 600v200h1600v-200h-1600z" />
    <glyph glyph-name="uni2016" unicode="&#x2016;" horiz-adv-x="1800" 
d="M700 1400v-1600h-300v1600h300zM1200 1400v-1600h-300v1600h300z" />
    <glyph glyph-name="underscoredbl" unicode="&#x2017;" 
d="M0 0v100h1600v-100h-1600zM0 -100h1600v-100h-1600v100z" />
    <glyph glyph-name="quoteleft" unicode="&#x2018;" horiz-adv-x="1000" 
d="M700 1200h-100v-400h-300v400h100v100h100v100h300v-100h-100v-100z" />
    <glyph glyph-name="quoteright" unicode="&#x2019;" horiz-adv-x="1000" 
d="M700 1400v-400h-100v-100h-100v-100h-300v100h100v100h100v400h300z" />
    <glyph glyph-name="quotesinglbase" unicode="&#x201a;" horiz-adv-x="1000" 
d="M700 400v-400h-100v-100h-100v-100h-300v100h100v100h100v400h300z" />
    <glyph glyph-name="quotereversed" unicode="&#x201b;" horiz-adv-x="1000" 
d="M200 1000v400h300v-400h100v-100h100v-100h-300v100h-100v100h-100z" />
    <glyph glyph-name="quotedblleft" unicode="&#x201c;" 
d="M1100 1200v-400h-300v400h100v100h100v100h300v-100h-100v-100h-100zM200 1200h100v100h100v100h300v-100h-100v-100h-100v-400h-300v400z" />
    <glyph glyph-name="quotedblright" unicode="&#x201d;" 
d="M1100 1400h300v-400h-100v-100h-100v-100h-300v100h100v100h100v400zM200 900h100v100h100v400h300v-400h-100v-100h-100v-100h-300v100z" />
    <glyph glyph-name="quotedblbase" unicode="&#x201e;" 
d="M1100 0v400h300v-400h-100v-100h-100v-100h-300v100h100v100h100zM700 400v-400h-100v-100h-100v-100h-300v100h100v100h100v400h300z" />
    <glyph glyph-name="uni201F" unicode="&#x201f;" 
d="M1400 900v-100h-300v100h-100v100h-100v400h300v-400h100v-100h100zM200 1000v400h300v-400h100v-100h100v-100h-300v100h-100v100h-100z" />
    <glyph glyph-name="dagger" unicode="&#x2020;" 
d="M1000 600v-800h-300v800h-400v200h400v200h-400v200h400v200h300v-200h400v-200h-400v-200h400v-200h-400z" />
    <glyph glyph-name="daggerdbl" unicode="&#x2021;" 
d="M1000 200h400v-200h-400v-200h-300v200h-400v200h400v400h-400v200h400v200h-400v200h400v200h300v-200h400v-200h-400v-200h400v-200h-400v-400z" />
    <glyph glyph-name="bullet" unicode="&#x2022;" horiz-adv-x="1400" 
d="M1000 200h-600v600h600v-600z" />
    <glyph glyph-name="uni2023" unicode="&#x2023;" horiz-adv-x="1400" 
d="M1000 600v-200h-200v-100h-200v-100h-200v600h200v-100h200v-100h200z" />
    <glyph glyph-name="uni2024" unicode="&#x2024;" horiz-adv-x="800" 
d="M0 0v200h300v-200h-300z" />
    <glyph glyph-name="uni2025" unicode="&#x2025;" horiz-adv-x="1200" 
d="M0 0v200h300v-200h-300zM600 200h300v-200h-300v200z" />
    <glyph glyph-name="ellipsis" unicode="&#x2026;" 
d="M0 0v200h300v-200h-300zM1200 0v200h300v-200h-300zM600 200h300v-200h-300v200z" />
    <glyph glyph-name="uni2027" unicode="&#x2027;" horiz-adv-x="800" 
d="M200 800h300v-200h-300v200z" />
    <glyph glyph-name="perthousand" unicode="&#x2030;" horiz-adv-x="2500" 
d="M2200 0h-400v100h-100v100h-100v200h100v100h100v100h400v-100h100v-100h100v-200h-100v-100h-100v-100zM700 400h100v100h100v100h400v-100h100v-100h100v-200h-100v-100h-100v-100h-400v100h-100v100h-100v200zM800 800h100v-100h-100v100zM400 1300v-400h200v400h-200
zM1300 1100h-100v100h100v-100zM2100 100v400h-200v-400h200zM700 1300h100v-100h100v-200h-100v-100h-100v-100h-400v100h-100v100h-100v200h100v100h100v100h400v-100zM400 400h100v-100h-100v100zM1100 1100h100v-100h-100v100zM600 500v100h100v-100h-100zM300 300h100
v-100h-100v100zM1100 1000v-100h-100v100h100zM1200 100v400h-200v-400h200zM700 700h100v-100h-100v100zM200 100v100h100v-100h-100zM500 400v100h100v-100h-100zM1400 1300v-100h-100v100h100zM900 800v100h100v-100h-100z" />
    <glyph glyph-name="uni2031" unicode="&#x2031;" horiz-adv-x="3400" 
d="M3200 200v-100h-100v-100h-400v100h-100v100h-100v200h100v100h100v100h400v-100h100v-100h100v-200h-100zM2200 0h-400v100h-100v100h-100v200h100v100h100v100h400v-100h100v-100h100v-200h-100v-100h-100v-100zM700 400h100v100h100v100h400v-100h100v-100h100v-200
h-100v-100h-100v-100h-400v100h-100v100h-100v200zM800 800h100v-100h-100v100zM400 1300v-400h200v400h-200zM1300 1100h-100v100h100v-100zM2100 100v400h-200v-400h200zM700 1300h100v-100h100v-200h-100v-100h-100v-100h-400v100h-100v100h-100v200h100v100h100v100h400
v-100zM400 400h100v-100h-100v100zM3000 500h-200v-400h200v400zM1100 1100h100v-100h-100v100zM600 500v100h100v-100h-100zM300 300h100v-100h-100v100zM1100 1000v-100h-100v100h100zM1200 100v400h-200v-400h200zM700 700h100v-100h-100v100zM200 100v100h100v-100h-100
zM500 400v100h100v-100h-100zM1400 1300v-100h-100v100h100zM900 800v100h100v-100h-100z" />
    <glyph glyph-name="guilsinglleft" unicode="&#x2039;" horiz-adv-x="900" 
d="M500 100h-100v100h-100v100h-100v100h-100v100h100v100h100v100h100v100h100v100h300v-100h-100v-100h-100v-100h-100v-100h-100v-100h100v-100h100v-100h100v-100h100v-100h-300v100z" />
    <glyph glyph-name="guilsinglright" unicode="&#x203a;" horiz-adv-x="900" 
d="M500 100h-100v-100h-300v100h100v100h100v100h100v100h100v100h-100v100h-100v100h-100v100h-100v100h300v-100h100v-100h100v-100h100v-100h100v-100h-100v-100h-100v-100h-100v-100z" />
    <glyph glyph-name="exclamdbl" unicode="&#x203c;" horiz-adv-x="1800" 
d="M1000 200h300v-200h-300v200zM700 400h-300v1000h300v-1000zM1000 400v1000h300v-1000h-300zM700 200v-200h-300v200h300z" />
    <glyph glyph-name="uni203D" unicode="&#x203d;" 
d="M1100 1100h-100v100h-100v-400h100v100h100v200zM200 1000v200h100v100h200v100h600v-100h200v-100h100v-400h-100v-100h-200v-100h-200v-200h-300v700h-100v-100h-300zM600 200h300v-200h-300v200z" />
    <glyph glyph-name="fraction" unicode="&#x2044;" 
d="M0 0v200h100v100h100v100h100v100h100v100h100v100h100v100h100v100h100v100h100v100h100v100h100v100h100v100h300v-200h-100v-100h-100v-100h-100v-100h-100v-100h-100v-100h-100v-100h-100v-100h-100v-100h-100v-100h-100v-100h-100v-100h-100v-100h-300z" />
    <glyph glyph-name="Euro" unicode="&#x20ac;" 
d="M1000 200v100h100v100h300v-200h-100v-100h-200v-100h-600v100h-200v100h-100v200h-200v200h200v200h-200v200h200v200h100v100h200v100h600v-100h200v-100h100v-200h-300v100h-100v100h-400v-100h-100v-100h200v-200h-200v-200h200v-200h-200v-100h100v-100h400z" />
    <glyph glyph-name="uni2117" unicode="&#x2117;" 
d="M1100 1400v-100h100v-100h100v-200h-100v-100h-100v-100h-600v-200h-300v800h900zM500 1200v-200h500v200h-500z" />
    <glyph glyph-name="uni2120" unicode="&#x2120;" horiz-adv-x="2200" 
d="M2000 1400v-600h-200v300h-100v-100h-100v-100h-200v100h-100v100h-100v-300h-200v600h200v-100h100v-100h100v-100h200v100h100v100h100v100h200zM800 800h-500v200h200v100h-100v100h-100v100h100v100h500v-200h-200v-100h100v-100h100v-100h-100v-100z" />
    <glyph glyph-name="trademark" unicode="&#x2122;" horiz-adv-x="2200" 
d="M1700 1300h100v100h200v-600h-200v300h-100v-100h-100v-100h-200v100h-100v100h-100v-300h-200v600h200v-100h100v-100h100v-100h200v100h100v100zM700 800h-200v400h-200v200h600v-200h-200v-400z" />
    <glyph glyph-name="Omega" unicode="&#x2126;" 
d="M700 400v-400h-500v300h100v-100h200v200h-100v100h-100v100h-100v600h100v100h200v100h600v-100h200v-100h100v-600h-100v-100h-100v-100h-100v-200h200v100h100v-300h-500v400h100v100h100v600h-100v100h-400v-100h-100v-600h100v-100h100z" />
    <glyph glyph-name="uni2127" unicode="&#x2127;" 
d="M1000 200v100h100v600h-100v100h-100v400h500v-300h-100v100h-200v-200h100v-100h100v-100h100v-600h-100v-100h-200v-100h-600v100h-200v100h-100v600h100v100h100v100h100v200h-200v-100h-100v300h500v-400h-100v-100h-100v-600h100v-100h400z" />
    <glyph glyph-name="partialdiff" unicode="&#x2202;" 
d="M500 100h-200v100h-100v500h100v100h200v100h500v-100h100v300h-200v100h-400v-100h-200v100h100v100h100v100h500v-100h200v-100h100v-100h100v-900h-100v-100h-200v-100h-600v100zM1000 200v100h100v300h-100v100h-400v-100h-100v-300h100v-100h400z" />
    <glyph glyph-name="Delta" unicode="&#x2206;" horiz-adv-x="1400" 
d="M1000 400v200h-100v200h-100v200h-200v-200h-100v-200h-100v-200h-100v-200h800v200h-100zM1200 600v-200h100v-400h-1200v400h100v200h100v200h100v200h100v200h100v200h200v-200h100v-200h100v-200h100v-200h100z" />
    <glyph glyph-name="uni2207" unicode="&#x2207;" horiz-adv-x="1400" 
d="M100 1400h1200v-400h-100v-200h-100v-200h-100v-200h-100v-200h-100v-200h-200v200h-100v200h-100v200h-100v200h-100v200h-100v400zM1100 1000v200h-800v-200h100v-200h100v-200h100v-200h200v200h100v200h100v200h100z" />
    <glyph glyph-name="product" unicode="&#x220f;" 
d="M1100 0h-300v1200h-200v-1200h-300v1200h-300v200h1400v-200h-300v-1200z" />
    <glyph glyph-name="uni2210" unicode="&#x2210;" 
d="M0 0v200h300v1200h300v-1200h200v1200h300v-1200h300v-200h-1400z" />
    <glyph glyph-name="summation" unicode="&#x2211;" 
d="M900 500v-100h-100v-100h-100v-100h-100v-100h-100v-100h800v-100h-100v-100h-1000v200h100v100h100v100h100v100h100v100h100v100h100v200h-100v100h-100v100h-100v100h-100v100h-100v100h-100v200h1000v-100h100v-100h-700v-100h100v-100h100v-100h100v-100h100v-100
h100v-100h-100v-100h-100zM1400 100v-100h-100v100h100zM1300 1100v100h100v-100h-100z" />
    <glyph glyph-name="radical" unicode="&#x221a;" 
d="M1100 1100v-400h-100v-300h-100v-300h-100v-300h-300v100h-100v100h-100v100h-300v100h400v-100h200v300h100v300h100v400h100v300h700v-100h-400v-200h-100z" />
    <glyph glyph-name="uni221B" unicode="&#x221b;" 
d="M700 400v300h100v400h100v300h700v-100h-400v-200h-100v-400h-100v-300h-100v-300h-100v-300h-300v100h-100v100h-100v100h-300v100h400v-100h200v300h100zM0 1300h100v100h500v-100h100v-100h-100v-100h100v-200h-100v-100h-500v100h-100v100h200v-100h300v200h-200v100
h200v100h-300v-100h-200v100z" />
    <glyph glyph-name="uni221C" unicode="&#x221c;" 
d="M700 400v300h100v400h100v300h700v-100h-400v-200h-100v-400h-100v-300h-100v-300h-100v-300h-300v100h-100v100h-100v100h-300v100h400v-100h200v300h100zM200 1100h200v200h200v-200h100v-100h-100v-200h-200v200h-400v400h200v-300z" />
    <glyph glyph-name="uni221D" unicode="&#x221d;" horiz-adv-x="1400" 
d="M900 500v-100h400v-100h-100v-100h-400v100h-100v100h-100v-100h-100v-100h-300v100h-100v100h-100v400h100v100h100v100h400v-100h100v-100h100v100h100v100h300v-100h100v-100h-300v-100h-100v-100h-100v-100h100zM600 600v100h-100v100h-300v-400h200v100h100v100h100
z" />
    <glyph glyph-name="infinity" unicode="&#x221e;" 
d="M900 500v-100h300v400h-200v-100h-100v-100h-100v-100h100zM700 400h-100v-100h-100v-100h-300v100h-100v100h-100v400h100v100h100v100h400v-100h100v-100h100v100h100v100h300v-100h100v-100h100v-400h-100v-100h-100v-100h-400v100h-100v100zM600 600v100h-100v100
h-300v-400h200v100h100v100h100z" />
    <glyph glyph-name="integral" unicode="&#x222b;" 
d="M700 -200h-300v100h-100v100h300v1200h100v100h100v100h300v-100h100v-100h-300v-1200h-100v-100h-100v-100zM200 0v200h100v-200h-100zM1300 1000h-100v200h100v-200z" />
    <glyph glyph-name="approxequal" unicode="&#x2248;" 
d="M400 700h-200v100h100v100h100v100h800v100h200v-100h-100v-100h-100v-100h-800v-100zM1200 600v100h200v-100h-100v-100h-100v-100h-800v-100h-200v100h100v100h100v100h800z" />
    <glyph glyph-name="uni2249" unicode="&#x2249;" 
d="M600 300v-100h-200v100h100v100h-100v-100h-200v100h100v100h100v100h200v100h100v100h-300v-100h-200v100h100v100h100v100h500v100h100v100h200v-100h-100v-100h100v100h200v-100h-100v-100h-100v-100h-200v-100h-100v-100h300v100h200v-100h-100v-100h-100v-100h-500
v-100h-100z" />
    <glyph glyph-name="notequal" unicode="&#x2260;" 
d="M700 400v-100h-100v-100h-300v100h100v100h-200v200h400v100h100v100h-500v200h700v100h100v100h300v-100h-100v-100h200v-200h-400v-100h-100v-100h500v-200h-700z" />
    <glyph glyph-name="equivalence" unicode="&#x2261;" 
d="M1400 800v-200h-1200v200h1200zM1400 1000h-1200v200h1200v-200zM1400 200h-1200v200h1200v-200z" />
    <glyph glyph-name="uni2262" unicode="&#x2262;" 
d="M900 500h-100v-100h600v-200h-800v-100h-100v-100h-300v100h100v100h-100v200h300v100h100v100h-400v200h500v100h100v100h-600v200h800v100h100v100h300v-100h-100v-100h100v-200h-300v-100h-100v-100h400v-200h-500v-100z" />
    <glyph glyph-name="uni2263" unicode="&#x2263;" 
d="M1400 1000v-200h-1200v200h1200zM1400 0h-1200v200h1200v-200zM1400 1200h-1200v200h1200v-200zM1400 600v-200h-1200v200h1200z" />
    <glyph glyph-name="lessequal" unicode="&#x2264;" horiz-adv-x="1400" 
d="M900 500v-100h100v-100h-300v100h-100v100h-100v100h-100v100h-100v100h100v100h100v100h100v100h100v100h300v-100h-100v-100h-100v-100h-100v-100h-100v-100h100v-100h100v-100h100zM200 0v200h1000v-200h-1000z" />
    <glyph glyph-name="greaterequal" unicode="&#x2265;" horiz-adv-x="1400" 
d="M900 500h-100v-100h-100v-100h-300v100h100v100h100v100h100v100h100v100h-100v100h-100v100h-100v100h-100v100h300v-100h100v-100h100v-100h100v-100h100v-100h-100v-100h-100v-100zM200 0v200h1000v-200h-1000z" />
    <glyph glyph-name="uni2318" unicode="&#x2318;" horiz-adv-x="1400" 
d="M1100 0h-300v100h-200v-100h-300v100h200v100h400v-100h200v-100zM-100 300v500h100v100h100v100h400v-100h100v-100h100v100h100v100h400v-100h100v-100h100v-100h-200v100h-100v100h-200v-100h-100v-100h-300v100h-100v100h-200v-100h-100v-500h100v-100h100v-100h-200
v100h-100v100h-100zM1200 600h-100v-200h100v-100h-200v100h-100v200h100v100h200v-100zM1200 300h200v-100h-100v-100h-200v100h100v100zM700 1300v100h300v-100h-100v-100h-200v-100h-100v200h100z" />
    <glyph glyph-name="uni2325" unicode="&#x2325;" horiz-adv-x="1800" 
d="M1100 1300v-100h-200v-100h-100v200h100v100h300v-100h-100zM800 800h100v100h100v100h400v-100h100v-100h100v-100h-200v-100h-100v-200h100v-100h200v-100h-100v-100h-100v-100h-400v100h-300v-100h-300v100h-100v100h-100v600h100v100h100v100h300v-100h100v-100z" />
    <glyph glyph-name="uni25C6" unicode="&#x25c6;" 
d="M1000 200h-100v-100h-100v-100h-100v100h-100v100h-100v100h-100v100h-100v100h-100v100h-100v100h100v100h100v100h100v100h100v100h100v100h100v100h100v-100h100v-100h100v-100h100v-100h100v-100h100v-100h100v-100h-100v-100h-100v-100h-100v-100h-100v-100z" />
    <glyph glyph-name="uni25C7" unicode="&#x25c7;" 
d="M1000 200h-100v-100h-100v-100h-200v100h-100v100h-100v100h-100v100h-100v100h-100v100h-100v200h100v100h100v100h100v100h100v100h100v100h100v100h200v-100h100v-100h100v-100h100v-100h100v-100h100v-100h100v-200h-100v-100h-100v-100h-100v-100h-100v-100z
M600 300v-100h200v100h100v100h100v100h100v100h100v200h-100v100h-100v100h-100v100h-100v100h-200v-100h-100v-100h-100v-100h-100v-100h-100v-200h100v-100h100v-100h100v-100h100z" />
    <glyph glyph-name="lozenge" unicode="&#x25ca;" 
d="M1000 200h-100v-100h-100v-100h-200v100h-100v100h-100v100h-100v100h-100v100h-100v100h-100v200h100v100h100v100h100v100h100v100h100v100h100v100h200v-100h100v-100h100v-100h100v-100h100v-100h100v-100h100v-200h-100v-100h-100v-100h-100v-100h-100v-100z
M600 300v-100h200v100h100v100h100v100h100v100h100v200h-100v100h-100v100h-100v100h-100v100h-200v-100h-100v-100h-100v-100h-100v-100h-100v-200h100v-100h100v-100h100v-100h100z" />
    <glyph glyph-name="uni2713" unicode="&#x2713;" 
d="M700 400v100h100v100h100v100h100v100h100v100h100v100h200v-200h-100v-100h-100v-100h-100v-100h-100v-100h-100v-100h-100v-100h-100v-100h-100v-100h-200v100h-100v100h-100v100h-100v100h-100v200h200v-100h100v-100h100v-100h200v100h100z" />
    <glyph glyph-name="uniF700" unicode="&#xf700;" horiz-adv-x="1800" 
d="M700 400h-200v-400h-300v1000h300v-400h200v100h100v100h100v100h100v100h400v-100h-100v-100h-100v-100h-100v-100h-100v-200h100v-100h100v-100h100v-100h100v-100h-400v100h-100v100h-100v100h-100v100zM200 1100v100h100v-100h-100zM1400 1400h100v-100h-100v100z
M400 1300v100h400v-100h200v-100h300v-100h-500v100h-200v100h-200zM1400 1300v-100h-100v100h100zM300 1300h100v-100h-100v100z" />
    <glyph glyph-name="uniF701" unicode="&#xf701;" 
d="M1000 200h100v-100h100v-100h-400v100h-100v100h-200v-200h-300v1000h300v-600h200v100h100v100h400v-100h-100v-100h-100v-200zM100 1200h100v-100h-100v100zM1100 1100h-400v100h-200v100h-200v100h400v-100h200v-100h200v-100zM1100 1300h100v-100h-100v100zM200 1300
h100v-100h-100v100zM1300 1300h-100v100h100v-100z" />
    <glyph glyph-name="uniF702" unicode="&#xf702;" horiz-adv-x="2400" 
d="M2200 0h-2000v1400h300v-1200h600v1200h300v-1200h800v-200z" />
    <glyph glyph-name="uniF703" unicode="&#xf703;" horiz-adv-x="2400" 
d="M1000 200h400v1000h-200v200h500v-1200h200v-200h-1400v200h200v1000h-200v200h500v-1200z" />
    <glyph glyph-name="uniF704" unicode="&#xf704;" horiz-adv-x="1800" 
d="M200 1100v100h100v-100h-100zM800 400h-200v100h-200v-500h-200v900h200v-100h200v-100h200v-100h200v100h200v100h200v100h200v-900h-200v500h-200v-100h-200v-100h-200v100zM400 1300v100h600v-100h200v-100h200v-100h-600v100h-200v100h-200zM1500 1300v100h100v-100
h-100zM1400 1300h100v-100h-100v100zM300 1300h100v-100h-100v100z" />
    <glyph glyph-name="uniF705" unicode="&#xf705;" horiz-adv-x="2000" 
d="M1100 0h-300v800h-200v-100h-100v-700h-300v1000h300v-100h100v100h300v-100h100v-100h100v100h100v100h400v-100h100v-900h-300v800h-200v-100h-100v-700zM200 1100v100h100v100h100v100h600v-100h200v-100h200v100h100v100h200v-100h-100v-100h-100v-100h-600v100h-200
v100h-200v-100h-100v-100h-200z" />
    <glyph glyph-name="uniF812" unicode="&#xf812;" horiz-adv-x="1400" 
d="M1100 0h-300v100h-200v-100h-300v100h200v100h400v-100h200v-100zM-100 300v500h100v100h100v100h400v-100h100v-100h100v100h100v100h400v-100h100v-100h100v-100h-200v100h-100v100h-200v-100h-100v-100h-300v100h-100v100h-200v-100h-100v-500h100v-100h100v-100h-200
v100h-100v100h-100zM1200 600h-100v-200h100v-100h-200v100h-100v200h100v100h200v-100zM1200 300h200v-100h-100v-100h-200v100h100v100zM700 1300v100h300v-100h-100v-100h-200v-100h-100v200h100z" />
    <glyph glyph-name="uniF813" unicode="&#xf813;" horiz-adv-x="1800" 
d="M1100 1300v-100h-200v-100h-100v200h100v100h300v-100h-100zM800 800h100v100h100v100h400v-100h100v-100h100v-100h-200v-100h-100v-200h100v-100h200v-100h-100v-100h-100v-100h-400v100h-300v-100h-300v100h-100v100h-100v600h100v100h100v100h300v-100h100v-100z" />
    <glyph glyph-name="uniF8FF" unicode="&#xf8ff;" horiz-adv-x="1800" 
d="M1100 1300v-100h-200v-100h-100v200h100v100h300v-100h-100zM800 800h100v100h100v100h400v-100h100v-100h100v-100h-200v-100h-100v-200h100v-100h200v-100h-100v-100h-100v-100h-400v100h-300v-100h-300v100h-100v100h-100v600h100v100h100v100h300v-100h100v-100z" />
    <glyph glyph-name="uniFB00" unicode="&#xfb00;" horiz-adv-x="2200" 
d="M800 800v-800h-300v800h-300v200h300v200h100v100h100v100h500v-200h-400v-200h400v200h100v100h100v100h500v-200h-400v-200h300v-200h-300v-800h-300v800h-400z" />
    <glyph glyph-name="fi" unicode="&#xfb01;" horiz-adv-x="2000" 
d="M800 800v-800h-300v800h-300v200h300v200h100v100h100v100h500v-200h-400v-200h700v-800h300v-200h-900v200h300v600h-400z" />
    <glyph glyph-name="fl" unicode="&#xfb02;" horiz-adv-x="2200" 
d="M1000 200h200v600h-400v-800h-300v800h-300v200h300v200h100v100h100v100h800v-1200h200v-200h-700v200zM1200 1200h-400v-200h400v200z" />
    <glyph glyph-name="uniFB03" unicode="&#xfb03;" horiz-adv-x="2800" 
d="M2000 1400v-200h-400v-200h700v-800h300v-200h-900v200h300v600h-400v-800h-300v800h-400v-800h-300v800h-300v200h300v200h100v100h100v100h500v-200h-400v-200h400v200h100v100h100v100h500z" />
    <glyph glyph-name="uniFB04" unicode="&#xfb04;" horiz-adv-x="3000" 
d="M2300 1400v-1200h200v-200h-700v200h200v600h-400v-800h-300v800h-400v-800h-300v800h-300v200h300v200h100v100h100v100h500v-200h-400v-200h400v200h100v100h100v100h800zM2000 1200h-400v-200h400v200z" />
    <glyph glyph-name="uniFB05" unicode="&#xfb05;" horiz-adv-x="2400" 
d="M1000 800v200h300v200h-400v-1200h-300v800h-300v200h300v200h100v100h100v100h800v-400h400v-200h-400v-500h100v-100h300v-200h-500v100h-100v100h-100v600h-300z" />
    <glyph glyph-name="uniFB06" unicode="&#xfb06;" horiz-adv-x="2800" 
d="M1000 200v200h-500v100h-100v100h-100v200h100v100h100v100h300v200h100v100h100v100h400v-100h100v-100h100v100h300v-300h400v-200h-400v-500h100v-100h300v-200h-500v100h-100v100h-100v600h-300v200h200v100h-100v100h-300v-100h-100v-100h100v-100h100v-200h-200
v100h-400v-200h500v-100h100v-100h100v-200h-100v-100h-100v-100h-700v100h-100v200h200v-100h500z" />
    <glyph glyph-name="uniFB07" unicode="&#xfb07;" horiz-adv-x="2800" 
d="M1000 200v100h100v100h300v-200h-100v-100h-200v-100h-600v100h-200v100h-100v600h100v100h200v100h300v100h100v100h100v100h100v100h400v-100h100v-100h100v100h300v-300h400v-200h-400v-500h100v-100h300v-200h-500v100h-100v100h-100v600h-300v200h200v100h-100v100
h-400v-100h-100v-100h100v-100h200v-100h100v-200h-300v100h-100v100h-400v-100h-100v-400h100v-100h400z" />
  </font>
</defs>
</svg>
